<svg xmlns="http://www.w3.org/2000/svg" xmlns:xlink="http://www.w3.org/1999/xlink" width="1366" zoomAndPan="magnify" viewBox="0 0 1024.5 576" height="768" preserveAspectRatio="xMidYMid meet" version="1.0"><defs><filter x="0%" y="0%" width="100%" height="100%" id="7184bc374f"><feColorMatrix values="0 0 0 0 1 0 0 0 0 1 0 0 0 0 1 0 0 0 1 0" color-interpolation-filters="sRGB"/></filter><clipPath id="5de8928f71"><path d="M 0 0.140625 L 1024 0.140625 L 1024 575.859375 L 0 575.859375 Z M 0 0.140625 " clip-rule="nonzero"/></clipPath><clipPath id="236dfc2351"><path d="M 0 0.140625 L 1024 0.140625 L 1024 460 L 0 460 Z M 0 0.140625 " clip-rule="nonzero"/></clipPath><mask id="144c24b8ed"><g filter="url(#7184bc374f)"><rect x="-102.45" width="1229.4" fill="#000000" y="-57.6" height="691.2" fill-opacity="0.0275"/></g></mask><clipPath id="3dccda711a"><path d="M 0.363281 1.003906 L 710 1.003906 L 710 354 L 0.363281 354 Z M 0.363281 1.003906 " clip-rule="nonzero"/></clipPath><clipPath id="bba1eed336"><rect x="0" width="712" y="0" height="355"/></clipPath></defs><g clip-path="url(#5de8928f71)"><path fill="#ffffff" d="M 0 0.140625 L 1024.5 0.140625 L 1024.5 583.640625 L 0 583.640625 Z M 0 0.140625 " fill-opacity="1" fill-rule="nonzero"/><path fill="#ffffff" d="M 0 0.140625 L 1024.5 0.140625 L 1024.5 576.140625 L 0 576.140625 Z M 0 0.140625 " fill-opacity="1" fill-rule="nonzero"/><path fill="#ffffff" d="M 0 0.140625 L 1024.5 0.140625 L 1024.5 576.140625 L 0 576.140625 Z M 0 0.140625 " fill-opacity="1" fill-rule="nonzero"/></g><g clip-path="url(#236dfc2351)"><path fill="#253c69" d="M 0 0.140625 L 1023.300781 0.140625 L 1023.300781 459.140625 L 0 459.140625 Z M 0 0.140625 " fill-opacity="1" fill-rule="nonzero"/></g><g mask="url(#144c24b8ed)"><g transform="matrix(1, 0, 0, 1, 157, 58)"><g clip-path="url(#bba1eed336)"><g clip-path="url(#3dccda711a)"><path fill="#ffffff" d="M 33.859375 150.695312 C 35.722656 148.414062 39.011719 144.246094 43.058594 143.324219 C 47.109375 142.40625 53.179688 143.140625 54.648438 146.089844 C 56.121094 149.03125 60.539062 153.636719 66.054688 151.980469 C 71.574219 150.328125 75.167969 147.910156 76.640625 147.644531 C 78.109375 147.378906 78.9375 145.539062 82.4375 149.496094 C 85.929688 153.453125 88.140625 153.914062 92.375 151.613281 C 96.601562 149.3125 96.878906 146.824219 101.113281 146.363281 C 105.34375 145.90625 110.566406 148.574219 113.117188 144.085938 C 115.667969 139.597656 116.769531 136.492188 118.015625 134.414062 C 119.253906 132.34375 121.257812 129.585938 122.570312 129.722656 C 123.875 129.859375 128.503906 130.96875 130.921875 129.027344 C 133.335938 127.101562 134.300781 122.679688 135.820312 118.398438 C 137.335938 114.121094 136.160156 113.976562 139.890625 113.773438 C 143.613281 113.5625 148.792969 111.90625 154.929688 111.566406 C 161.070312 111.21875 163.96875 108.039062 164.519531 106.519531 C 165.070312 105 166.589844 101.207031 166.589844 89.464844 C 166.589844 77.726562 174.320312 76.761719 172.871094 69.160156 C 171.417969 61.566406 174.320312 65.296875 179.703125 61.292969 C 185.085938 57.28125 183.007812 54.9375 187.570312 54.660156 C 192.121094 54.386719 201.433594 56.246094 204.195312 50.449219 C 206.953125 44.648438 207.714844 46.582031 208.265625 42.644531 C 208.816406 38.707031 212.816406 36.707031 216.960938 32.632812 C 221.101562 28.558594 225.304688 23.929688 227.449219 22.554688 C 229.585938 21.171875 231.933594 19.789062 233.242188 21.035156 C 234.554688 22.273438 234.757812 24.902344 236.761719 23.792969 C 238.761719 22.6875 239.175781 20.476562 241.039062 20.550781 C 242.90625 20.617188 245.871094 23.242188 247.042969 23.519531 C 248.214844 23.792969 250.699219 23.722656 252.699219 21.585938 C 254.699219 19.445312 255.183594 17.785156 258.082031 19.03125 C 260.980469 20.269531 262.292969 19.71875 264.296875 19.925781 C 266.296875 20.136719 267.882812 20.414062 268.433594 25.796875 C 268.984375 31.183594 269.882812 32.082031 269.46875 35.324219 C 269.050781 38.574219 268.085938 39.8125 270.847656 41.40625 C 273.605469 42.992188 276.4375 43.679688 278.367188 41.195312 C 280.300781 38.707031 283.472656 37.257812 284.652344 38.089844 C 285.820312 38.917969 287.6875 40.507812 287.40625 41.542969 C 287.132812 42.578125 288.992188 41.058594 291.753906 40.847656 C 294.511719 40.644531 296.65625 41.058594 296.375 35.949219 C 296.105469 30.835938 295.546875 30.628906 297.691406 30.148438 C 299.828125 29.664062 300.445312 27.796875 301.34375 24.488281 C 302.242188 21.171875 302.105469 16.953125 306.863281 17.234375 C 311.628906 17.511719 317.148438 17.300781 318.386719 15.714844 C 319.632812 14.128906 319.5625 14.46875 319.011719 11.710938 C 318.460938 8.945312 319.976562 8.605469 322.320312 6.117188 C 324.667969 3.632812 326.253906 1.417969 327.839844 2.039062 C 329.429688 2.664062 332.601562 1.488281 334.738281 5.21875 C 336.882812 8.945312 338.605469 11.363281 339.433594 20.753906 C 340.257812 30.148438 345.988281 31.046875 348.542969 31.945312 C 351.09375 32.835938 353.992188 32.769531 352.820312 36.019531 C 351.644531 39.261719 350.019531 40.574219 353.320312 40.023438 C 356.613281 39.472656 357.511719 37.742188 358.890625 39.675781 C 360.273438 41.609375 360.34375 42.230469 362.613281 41.125 C 364.894531 40.023438 365.234375 38.574219 366.757812 39.742188 C 368.277344 40.921875 370.617188 39.953125 370.617188 44.511719 C 370.617188 49.066406 370.210938 52.726562 371.101562 54.320312 C 372 55.90625 371.101562 56.527344 370.617188 58.734375 C 370.136719 60.945312 371.933594 60.808594 372.617188 62.398438 C 373.3125 63.984375 371.796875 64.535156 371.101562 66.054688 C 370.414062 67.574219 370.277344 67.292969 369.515625 70.820312 C 368.761719 74.34375 366.828125 73.792969 367.445312 76.480469 C 368.066406 79.179688 367.445312 81.175781 370.480469 81.175781 C 373.515625 81.175781 376.070312 80.96875 379.171875 78.550781 C 382.28125 76.132812 386.558594 73.097656 389.320312 73.792969 C 392.074219 74.480469 394.082031 75.207031 395.738281 77.46875 C 397.390625 79.722656 401.324219 84.632812 403.460938 82.695312 C 405.605469 80.765625 406.980469 81.039062 407.054688 76.277344 C 407.125 71.511719 406.570312 70.128906 408.292969 68.609375 C 410.015625 67.089844 411.058594 61.914062 411.058594 60.460938 C 411.058594 59.011719 411.398438 57.492188 413.328125 57.492188 C 415.261719 57.492188 416.644531 58.042969 417.398438 56.457031 C 418.160156 54.871094 418.507812 52.308594 420.027344 51.828125 C 421.542969 51.351562 426.300781 52.105469 428.511719 51.417969 C 430.71875 50.722656 433.339844 47.820312 433.753906 45.410156 C 434.167969 42.992188 434.855469 40.921875 436.375 41.40625 C 437.890625 41.890625 440.171875 44.164062 442.722656 42.855469 C 445.273438 41.542969 447.003906 38.851562 448.453125 39.191406 C 449.902344 39.539062 452.242188 41.542969 453.488281 42.925781 C 454.726562 44.308594 457.972656 43.75 462.179688 44.851562 C 466.394531 45.960938 466.527344 44.441406 468.460938 42.507812 C 470.394531 40.574219 471.496094 40.777344 473.566406 41.335938 C 475.632812 41.890625 476.398438 39.261719 479.015625 39.125 C 481.636719 38.988281 482.050781 35.601562 484.605469 40.4375 C 487.164062 45.265625 487.503906 50.308594 491.300781 51.070312 C 495.089844 51.828125 499.652344 50.519531 501.167969 53.277344 C 502.6875 56.042969 508.824219 60.394531 511.171875 59.425781 C 513.519531 58.460938 515.445312 56.390625 517.175781 53.421875 C 518.898438 50.449219 517.660156 49.753906 522.414062 49.066406 C 527.179688 48.378906 528.902344 49.550781 529.179688 46.71875 C 529.460938 43.886719 531.25 42.925781 527.246094 41.261719 C 523.246094 39.609375 521.660156 39.191406 522.695312 37.808594 C 523.730469 36.425781 525.730469 36.289062 527.246094 35.324219 C 528.765625 34.363281 532.496094 33.464844 533.664062 34.5 C 534.835938 35.535156 535.183594 39.191406 538.285156 39.394531 C 541.398438 39.609375 546.433594 39.539062 546.636719 32.082031 C 546.839844 24.625 567.476562 35.324219 569.613281 36.773438 C 571.75 38.226562 570.859375 37.671875 573.34375 36.570312 C 575.824219 35.464844 578.996094 36.15625 581.414062 35.324219 C 583.828125 34.5 582.792969 32.082031 587.898438 32.285156 C 593.003906 32.496094 594.316406 33.183594 598.25 34.082031 C 602.183594 34.984375 603.421875 32.082031 603.972656 35.882812 C 604.523438 39.675781 602.59375 40.574219 605.007812 40.777344 C 607.425781 40.988281 608.601562 41.335938 609.636719 43.195312 C 610.671875 45.0625 610.875 46.371094 612.460938 43.265625 C 614.050781 40.160156 613.910156 38.359375 617.019531 39.886719 C 620.125 41.40625 618.945312 42.09375 624.328125 44.308594 C 629.710938 46.515625 631.433594 43.960938 633.917969 47.132812 C 636.402344 50.308594 640.480469 53.835938 641.03125 57.765625 C 641.582031 61.703125 642.960938 62.328125 642.683594 66.054688 C 642.40625 69.785156 642.335938 70.6875 643.855469 71.78125 C 645.371094 72.894531 648.898438 71.992188 652.6875 73.929688 C 656.484375 75.863281 655.933594 78.550781 660.828125 79.179688 C 665.726562 79.800781 666.007812 77.238281 667.386719 79.035156 C 668.769531 80.835938 671.960938 86.425781 679.644531 85.691406 C 687.328125 84.953125 686.679688 85.457031 688.566406 87.53125 C 690.453125 89.601562 694.984375 92.78125 699.128906 93.882812 C 703.265625 94.988281 708.574219 93.265625 708.648438 96.855469 C 708.71875 100.441406 710.652344 99.613281 709.683594 104.589844 C 708.71875 109.554688 705.125 112.253906 701.679688 114.597656 C 698.230469 116.945312 698.851562 118.261719 697.953125 120.535156 C 697.054688 122.816406 693.949219 123.367188 694.917969 125.648438 C 695.882812 127.925781 698.433594 127.238281 697.195312 130.894531 C 695.949219 134.558594 690.5 136.078125 690.363281 139.046875 C 690.226562 142.015625 692.015625 145.257812 692.296875 147.125 C 692.566406 148.992188 686.84375 154.789062 686.152344 157.757812 C 685.464844 160.726562 687.183594 167.835938 685.597656 169.984375 C 684.011719 172.121094 679.324219 175.089844 678.628906 176.746094 C 677.941406 178.40625 675.324219 181.167969 674.007812 182.894531 C 672.695312 184.621094 665.3125 186.96875 664.835938 189.457031 C 664.351562 191.941406 664.902344 192.289062 664.691406 195.394531 C 664.488281 198.5 663.386719 198.914062 665.386719 201.75 C 667.386719 204.574219 667.457031 205.40625 666.277344 207.890625 C 665.109375 210.378906 663.453125 211.066406 663.660156 215.554688 C 663.871094 220.042969 665.523438 225.015625 663.039062 226.949219 C 660.554688 228.882812 658.207031 229.019531 655.105469 228.746094 C 652 228.46875 652.898438 227.917969 648.203125 229.503906 C 643.515625 231.097656 635.78125 231.300781 633.992188 231.785156 C 632.195312 232.269531 630.261719 233.304688 625.023438 234.960938 C 619.777344 236.621094 612.121094 236.757812 610.324219 232.890625 C 608.527344 229.019531 599.699219 217.835938 597.972656 214.867188 C 596.25 211.898438 597.972656 211.761719 597.285156 209.34375 C 596.589844 206.925781 591.621094 206.238281 590.585938 207.0625 C 589.550781 207.890625 587.695312 207.757812 585.550781 202.089844 C 583.414062 196.429688 577.617188 196.015625 576.03125 195.460938 C 574.445312 194.910156 575.132812 194.148438 572.308594 195.804688 C 569.476562 197.464844 564.855469 196.769531 562.855469 198.296875 C 560.855469 199.816406 560.160156 200.984375 558.640625 202.710938 C 557.125 204.4375 558.023438 205.890625 554.988281 204.921875 C 551.953125 203.957031 550.367188 202.921875 549.054688 203.746094 C 547.738281 204.574219 542.082031 209.34375 539.183594 209.410156 C 536.285156 209.480469 532.699219 208.722656 531.046875 207.890625 C 529.386719 207.0625 527.59375 206.167969 525.316406 206.375 C 523.042969 206.578125 523.382812 207.199219 521.382812 206.714844 C 519.378906 206.238281 519.246094 205.746094 517.109375 206.167969 C 514.964844 206.578125 513.445312 207.0625 511.65625 205.609375 C 509.859375 204.160156 504.476562 196.914062 499.71875 195.734375 C 494.957031 194.5625 494.335938 198.085938 490.75 197.746094 C 487.164062 197.398438 481.230469 195.394531 479.015625 196.496094 C 476.8125 197.601562 472.734375 201.46875 463.699219 202.4375 C 454.660156 203.402344 458.730469 208.308594 458.390625 210.929688 C 458.042969 213.550781 456.523438 217.351562 451.351562 222.257812 C 446.171875 227.160156 449.074219 234.269531 447.757812 236.410156 C 446.453125 238.554688 442.792969 242.695312 441.6875 244.699219 C 440.585938 246.703125 439.550781 248.425781 438.304688 251.054688 C 437.066406 253.675781 433.820312 257.613281 429.269531 255.535156 C 424.714844 253.472656 423.402344 254.628906 422.367188 256.121094 C 421.332031 257.613281 416.09375 255.949219 414.847656 257.613281 C 413.609375 259.265625 414.847656 260.167969 413.539062 263.136719 C 412.226562 266.105469 407.675781 271.492188 402.636719 271.699219 C 397.59375 271.910156 395.324219 271.078125 393.871094 273.496094 C 392.421875 275.914062 392.421875 279.429688 389.523438 280.121094 C 386.632812 280.808594 385.316406 281.367188 383.867188 279.429688 C 382.417969 277.5 380.902344 275.355469 379.171875 275.355469 C 377.449219 275.355469 374.292969 277.222656 371.90625 276.457031 C 369.515625 275.703125 368.761719 277.5 368.617188 272.316406 C 368.480469 267.140625 367.242188 264.308594 365.792969 265.003906 C 364.34375 265.691406 361.445312 268.3125 358.128906 266.039062 C 354.824219 263.757812 357.230469 262.167969 354.679688 261.40625 C 352.128906 260.648438 353.855469 259.265625 348.609375 261.40625 C 343.367188 263.550781 337.636719 267.761719 336.671875 270.664062 C 335.707031 273.5625 335.636719 274.597656 336.054688 277.289062 C 336.46875 279.988281 338.054688 281.089844 335.917969 283.023438 C 333.773438 284.957031 326.183594 286.613281 315.5625 286.199219 C 304.929688 285.78125 303.898438 291.933594 301.34375 292.417969 C 298.792969 292.898438 295.757812 293.375 292.722656 290.964844 C 289.6875 288.546875 286.371094 289.234375 280.921875 290.480469 C 275.46875 291.722656 267.261719 293.105469 263.878906 293.375 C 260.496094 293.65625 253.183594 293.585938 251.941406 294.828125 C 250.699219 296.074219 249.390625 298.144531 249.460938 300.699219 C 249.527344 303.253906 244.628906 304.566406 243.941406 307.402344 C 243.246094 310.226562 244.839844 312.992188 243.523438 316.03125 C 242.210938 319.066406 240.277344 322.792969 242.695312 325.835938 C 245.109375 328.875 245.941406 329.148438 249.042969 331.566406 C 252.148438 333.984375 256.84375 336.605469 254.214844 338.683594 C 251.597656 340.753906 247.875 340.339844 244.90625 339.160156 C 241.9375 337.988281 236.902344 338.125 236.691406 341.992188 C 236.488281 345.863281 235.453125 347.109375 234.003906 347.449219 C 232.554688 347.796875 231.035156 349.867188 214.886719 346.964844 C 198.746094 344.0625 190.394531 352.074219 185.703125 352.972656 C 181.007812 353.871094 174.386719 354.492188 169.835938 352.972656 C 165.28125 351.453125 152.515625 347.109375 148.164062 347.175781 C 143.824219 347.246094 140.371094 347.933594 136.710938 348.417969 C 133.058594 348.898438 119.875 349.59375 116.90625 348 C 113.945312 346.414062 98.417969 342.546875 90.964844 334.261719 C 83.511719 325.972656 82.6875 326.253906 81.027344 324.589844 C 79.375 322.9375 78.753906 319 72.957031 312.578125 C 67.160156 306.152344 68.820312 304.429688 62.605469 302.082031 C 56.398438 299.730469 53.363281 299.246094 50.601562 296.625 C 47.84375 294.003906 42.324219 298.90625 38.730469 295.726562 C 35.144531 292.550781 33.144531 293.585938 32.316406 292.484375 C 31.492188 291.382812 29.558594 291.238281 29.210938 283.710938 C 28.871094 276.1875 28.871094 275.082031 26.523438 273.769531 C 24.175781 272.453125 21.351562 270.382812 16.859375 265.070312 C 12.375 259.75 19.484375 253.949219 14.035156 247.457031 C 8.582031 240.964844 9.203125 245.9375 7.066406 238.414062 C 4.929688 230.886719 4.648438 231.300781 2.445312 228.398438 C 0.234375 225.5 -0.316406 219.355469 2.445312 215.765625 C 5.203125 212.167969 10.167969 203.402344 14.722656 200.019531 C 19.273438 196.632812 19.828125 192.492188 18.585938 188.351562 C 17.34375 184.203125 16.585938 183.167969 20.382812 179.164062 C 24.175781 175.160156 23.554688 170.808594 23.625 167.148438 C 23.691406 163.492188 25.421875 161.625 27.828125 158.308594 C 30.246094 155 32.320312 152.566406 33.859375 150.695312 " fill-opacity="1" fill-rule="nonzero"/></g></g></g></g></svg>