<svg xmlns="http://www.w3.org/2000/svg" xmlns:xlink="http://www.w3.org/1999/xlink" width="1366" zoomAndPan="magnify" viewBox="0 0 1024.5 576" height="768" preserveAspectRatio="xMidYMid meet" version="1.0"><defs><g/></defs><g fill="#ffffff" fill-opacity="1"><g transform="translate(325.618526, 194.814257)"><g><path d="M 55.328125 -1.8125 L 55.328125 0 C 47.078125 0 41.359375 -0.585938 38.171875 -1.765625 C 34.984375 -2.953125 31.84375 -5.910156 28.75 -10.640625 L 23.015625 -19.46875 L 21.84375 -18.375 L 21.84375 -1.8125 L 26.390625 -1.8125 L 26.390625 0 L 3.640625 0 L 3.640625 -1.8125 L 8.1875 -1.8125 L 8.1875 -59.15625 L 3.640625 -59.15625 L 3.640625 -60.96875 L 21.84375 -60.96875 L 21.84375 -21.109375 L 40.859375 -40.046875 L 33.484375 -40.046875 L 33.484375 -41.859375 L 50.78125 -41.859375 L 50.78125 -40.046875 L 43.59375 -40.046875 L 32.671875 -29.21875 L 43.59375 -12.828125 C 48.5 -5.484375 52.410156 -1.8125 55.328125 -1.8125 Z M 55.328125 -1.8125 "/></g></g></g><g fill="#ffffff" fill-opacity="1"><g transform="translate(380.488992, 194.814257)"><g><path d="M 35.03125 0 L 35.03125 -4.828125 C 33.882812 -3.179688 32.082031 -1.796875 29.625 -0.671875 C 27.164062 0.441406 24.507812 1 21.65625 1 C 10.851562 1 5.453125 -4.851562 5.453125 -16.5625 L 5.453125 -40.046875 L 0.90625 -40.046875 L 0.90625 -41.859375 L 19.109375 -41.859375 L 19.109375 -14.5625 C 19.109375 -10.25 19.742188 -7.179688 21.015625 -5.359375 C 22.296875 -3.546875 24.207031 -2.640625 26.75 -2.640625 C 30.144531 -2.640625 32.90625 -4.457031 35.03125 -8.09375 L 35.03125 -40.046875 L 30.484375 -40.046875 L 30.484375 -41.859375 L 48.6875 -41.859375 L 48.6875 -1.8125 L 53.234375 -1.8125 L 53.234375 0 Z M 35.03125 0 "/></g></g></g><g fill="#ffffff" fill-opacity="1"><g transform="translate(435.08647, 194.814257)"><g><path d="M 21.84375 -1.8125 L 26.390625 -1.8125 L 26.390625 0 L 3.640625 0 L 3.640625 -1.8125 L 8.1875 -1.8125 L 8.1875 -59.15625 L 3.640625 -59.15625 L 3.640625 -60.96875 L 21.84375 -60.96875 Z M 21.84375 -1.8125 "/></g></g></g><g fill="#ffffff" fill-opacity="1"><g transform="translate(462.840106, 194.814257)"><g><path d="M 20.390625 -40.046875 L 20.390625 -17.84375 C 20.390625 -12.625 20.597656 -9.453125 21.015625 -8.328125 C 21.441406 -7.203125 21.898438 -6.242188 22.390625 -5.453125 C 23.296875 -3.878906 24.882812 -3.09375 27.15625 -3.09375 C 29.4375 -3.09375 31.03125 -3.394531 31.9375 -4 L 31.9375 -2.1875 C 29.03125 -0.125 25.847656 0.90625 22.390625 0.90625 C 17.285156 0.90625 13.398438 -0.304688 10.734375 -2.734375 C 8.066406 -5.160156 6.734375 -9.5 6.734375 -15.75 L 6.734375 -40.046875 L 0 -40.046875 L 0 -41.859375 L 6.734375 -41.859375 C 9.648438 -42.347656 12.226562 -43.757812 14.46875 -46.09375 C 16.71875 -48.425781 18.265625 -51.65625 19.109375 -55.78125 L 20.390625 -55.78125 L 20.390625 -41.859375 L 30.9375 -41.859375 L 30.9375 -40.046875 Z M 20.390625 -40.046875 "/></g></g></g><g fill="#ffffff" fill-opacity="1"><g transform="translate(494.324584, 194.814257)"><g><path d="M 22.75 -46.5 C 23.78125 -48.019531 24.429688 -49.898438 24.703125 -52.140625 C 24.972656 -54.390625 25.53125 -56.101562 26.375 -57.28125 C 27.226562 -58.46875 28.289062 -59.226562 29.5625 -59.5625 C 30.84375 -59.894531 31.96875 -59.757812 32.9375 -59.15625 C 34.21875 -58.601562 35.007812 -57.582031 35.3125 -56.09375 C 35.613281 -54.613281 35.304688 -53.234375 34.390625 -51.953125 C 33.484375 -50.679688 31.816406 -49.710938 29.390625 -49.046875 C 26.960938 -48.378906 25.175781 -47.226562 24.03125 -45.59375 Z M 35.03125 0 L 35.03125 -4.828125 C 33.882812 -3.179688 32.082031 -1.796875 29.625 -0.671875 C 27.164062 0.441406 24.507812 1 21.65625 1 C 10.851562 1 5.453125 -4.851562 5.453125 -16.5625 L 5.453125 -40.046875 L 0.90625 -40.046875 L 0.90625 -41.859375 L 19.109375 -41.859375 L 19.109375 -14.5625 C 19.109375 -10.25 19.742188 -7.179688 21.015625 -5.359375 C 22.296875 -3.546875 24.207031 -2.640625 26.75 -2.640625 C 30.144531 -2.640625 32.90625 -4.457031 35.03125 -8.09375 L 35.03125 -40.046875 L 30.484375 -40.046875 L 30.484375 -41.859375 L 48.6875 -41.859375 L 48.6875 -1.8125 L 53.234375 -1.8125 L 53.234375 0 Z M 35.03125 0 "/></g></g></g><g fill="#ffffff" fill-opacity="1"><g transform="translate(549.377045, 194.814257)"><g><path d="M 26.390625 0 L 3.640625 0 L 3.640625 -1.8125 L 8.1875 -1.8125 L 8.1875 -40.046875 L 3.640625 -40.046875 L 3.640625 -41.859375 L 21.84375 -41.859375 L 21.84375 -31.03125 C 22.382812 -34 23.367188 -36.421875 24.796875 -38.296875 C 26.222656 -40.179688 27.800781 -41.425781 29.53125 -42.03125 C 31.257812 -42.644531 32.925781 -42.953125 34.53125 -42.953125 C 36.144531 -42.953125 37.691406 -42.660156 39.171875 -42.078125 C 40.660156 -41.503906 41.769531 -40.351562 42.5 -38.625 C 43.226562 -36.894531 43.257812 -35.164062 42.59375 -33.4375 C 41.925781 -31.707031 40.753906 -30.476562 39.078125 -29.75 C 37.410156 -29.03125 35.878906 -28.941406 34.484375 -29.484375 C 33.085938 -30.023438 32.085938 -30.765625 31.484375 -31.703125 C 30.878906 -32.648438 30.457031 -33.546875 30.21875 -34.390625 C 29.601562 -36.640625 28.78125 -37.765625 27.75 -37.765625 C 26.601562 -37.765625 25.332031 -35.773438 23.9375 -31.796875 C 22.539062 -27.828125 21.84375 -23.628906 21.84375 -19.203125 L 21.84375 -1.8125 L 26.390625 -1.8125 Z M 26.390625 0 "/></g></g></g><g fill="#ffffff" fill-opacity="1"><g transform="translate(591.963046, 194.814257)"><g><path d="M 51.421875 -1.8125 L 55.96875 -1.8125 L 55.96875 0 L 33.21875 0 L 33.21875 -1.8125 L 37.765625 -1.8125 L 37.765625 -27.296875 C 37.765625 -31.609375 37.125 -34.671875 35.84375 -36.484375 C 34.570312 -38.304688 32.664062 -39.21875 30.125 -39.21875 C 26.664062 -39.21875 23.90625 -37.398438 21.84375 -33.765625 L 21.84375 -1.8125 L 26.390625 -1.8125 L 26.390625 0 L 3.640625 0 L 3.640625 -1.8125 L 8.1875 -1.8125 L 8.1875 -40.046875 L 3.640625 -40.046875 L 3.640625 -41.859375 L 21.84375 -41.859375 L 21.84375 -37.125 C 22.988281 -38.707031 24.789062 -40.054688 27.25 -41.171875 C 29.707031 -42.296875 32.363281 -42.859375 35.21875 -42.859375 C 46.019531 -42.859375 51.421875 -37.003906 51.421875 -25.296875 Z M 51.421875 -1.8125 "/></g></g></g><g fill="#ffffff" fill-opacity="1"><g transform="translate(649.290409, 194.814257)"><g><path d="M 47.78125 -1.8125 C 47.164062 -1.207031 46.007812 -0.675781 44.3125 -0.21875 C 42.613281 0.226562 40.644531 0.453125 38.40625 0.453125 C 33.425781 0.453125 30.300781 -1.03125 29.03125 -4 C 26 -0.84375 21.359375 0.734375 15.109375 0.734375 C 11.765625 0.734375 9.015625 -0.0351562 6.859375 -1.578125 C 4.710938 -3.128906 3.640625 -5.425781 3.640625 -8.46875 C 3.640625 -12.53125 5.21875 -15.664062 8.375 -17.875 C 11.53125 -20.09375 17.050781 -21.65625 24.9375 -22.5625 L 28.578125 -23.015625 L 28.578125 -27.484375 C 28.578125 -32.765625 28.179688 -36.3125 27.390625 -38.125 C 26.597656 -39.945312 25.035156 -40.859375 22.703125 -40.859375 C 20.367188 -40.859375 18.867188 -40.539062 18.203125 -39.90625 C 17.535156 -39.269531 17.289062 -38.539062 17.46875 -37.71875 C 17.65625 -36.894531 17.957031 -35.816406 18.375 -34.484375 C 18.800781 -33.148438 19.015625 -32.085938 19.015625 -31.296875 C 19.015625 -29.421875 18.363281 -27.828125 17.0625 -26.515625 C 15.757812 -25.210938 14.179688 -24.5625 12.328125 -24.5625 C 10.484375 -24.5625 8.890625 -25.210938 7.546875 -26.515625 C 6.210938 -27.828125 5.546875 -29.421875 5.546875 -31.296875 C 5.546875 -34.390625 7.140625 -37.046875 10.328125 -39.265625 C 13.515625 -41.484375 18.273438 -42.59375 24.609375 -42.59375 C 30.953125 -42.59375 35.472656 -41.347656 38.171875 -38.859375 C 40.867188 -36.367188 42.21875 -31.96875 42.21875 -25.65625 L 42.21875 -9.28125 C 42.21875 -6.0625 42.613281 -4.039062 43.40625 -3.21875 C 44.195312 -2.40625 45.65625 -2.242188 47.78125 -2.734375 Z M 16.28125 -10.28125 C 16.59375 -7.976562 17.445312 -6.203125 18.84375 -4.953125 C 20.238281 -3.710938 21.859375 -3.09375 23.703125 -3.09375 C 25.554688 -3.09375 27.179688 -4.003906 28.578125 -5.828125 L 28.578125 -21.296875 L 25.296875 -20.84375 C 22.503906 -20.476562 20.242188 -19.414062 18.515625 -17.65625 C 16.785156 -15.894531 16.039062 -13.4375 16.28125 -10.28125 Z M 16.28125 -10.28125 "/></g></g></g><g fill="#ffffff" fill-opacity="1"><g transform="translate(350.731801, 283.314246)"><g><path d="M 21.84375 -1.8125 L 26.390625 -1.8125 L 26.390625 0 L 3.640625 0 L 3.640625 -1.8125 L 8.1875 -1.8125 L 8.1875 -40.046875 L 4.546875 -40.046875 L 4.546875 -41.859375 L 21.84375 -41.859375 Z M 22.65625 -53.90625 C 22.65625 -51.695312 21.878906 -49.816406 20.328125 -48.265625 C 18.785156 -46.722656 16.90625 -45.953125 14.6875 -45.953125 C 12.476562 -45.953125 10.582031 -46.722656 9 -48.265625 C 7.425781 -49.816406 6.640625 -51.695312 6.640625 -53.90625 C 6.640625 -56.125 7.425781 -58.019531 9 -59.59375 C 10.582031 -61.175781 12.476562 -61.96875 14.6875 -61.96875 C 16.90625 -61.96875 18.785156 -61.175781 20.328125 -59.59375 C 21.878906 -58.019531 22.65625 -56.125 22.65625 -53.90625 Z M 22.65625 -53.90625 "/></g></g></g><g fill="#ffffff" fill-opacity="1"><g transform="translate(378.485437, 283.314246)"><g><path d="M 20.84375 1.09375 C 15.925781 1.09375 11.675781 -0.847656 8.09375 -4.734375 C 4.519531 -8.617188 2.734375 -14.109375 2.734375 -21.203125 C 2.734375 -28.296875 4.488281 -33.84375 8 -37.84375 C 11.519531 -41.851562 15.800781 -43.859375 20.84375 -43.859375 C 23.320312 -43.859375 25.65625 -43.34375 27.84375 -42.3125 C 30.03125 -41.28125 31.609375 -39.734375 32.578125 -37.671875 L 32.578125 -59.15625 L 28.03125 -59.15625 L 28.03125 -60.96875 L 46.234375 -60.96875 L 46.234375 -1.8125 L 50.78125 -1.8125 L 50.78125 0 L 32.578125 0 L 32.578125 -4.1875 C 30.941406 -0.664062 27.03125 1.09375 20.84375 1.09375 Z M 32.578125 -19.921875 L 32.578125 -34.9375 C 30.941406 -38.21875 28.800781 -39.859375 26.15625 -39.859375 C 23.519531 -39.859375 21.257812 -38.34375 19.375 -35.3125 C 17.5 -32.28125 16.5625 -27.472656 16.5625 -20.890625 C 16.5625 -14.304688 17.53125 -9.492188 19.46875 -6.453125 C 21.414062 -3.421875 23.753906 -2.117188 26.484375 -2.546875 C 27.992188 -2.785156 29.144531 -3.269531 29.9375 -4 C 31.695312 -5.695312 32.578125 -11.003906 32.578125 -19.921875 Z M 32.578125 -19.921875 "/></g></g></g><g fill="#ffffff" fill-opacity="1"><g transform="translate(430.626017, 283.314246)"><g><path d="M 43.859375 -18.203125 L 16.375 -18.203125 C 16.988281 -7.523438 21.144531 -2.1875 28.84375 -2.1875 C 30.90625 -2.1875 33.253906 -2.671875 35.890625 -3.640625 C 38.535156 -4.609375 40.460938 -5.972656 41.671875 -7.734375 L 42.953125 -6.828125 C 41.617188 -4.578125 39.34375 -2.722656 36.125 -1.265625 C 32.90625 0.179688 29.703125 0.90625 26.515625 0.90625 C 23.335938 0.90625 20.472656 0.585938 17.921875 -0.046875 C 15.378906 -0.679688 12.894531 -1.753906 10.46875 -3.265625 C 8.039062 -4.785156 6.144531 -7.0625 4.78125 -10.09375 C 3.414062 -13.132812 2.734375 -16.804688 2.734375 -21.109375 C 2.734375 -28.453125 4.765625 -33.894531 8.828125 -37.4375 C 12.890625 -40.988281 17.816406 -42.765625 23.609375 -42.765625 C 29.410156 -42.765625 34.234375 -40.820312 38.078125 -36.9375 C 41.929688 -33.0625 43.859375 -26.816406 43.859375 -18.203125 Z M 16.28125 -20.015625 L 31.125 -20.015625 C 31.125 -25.597656 30.53125 -30.484375 29.34375 -34.671875 C 28.164062 -38.859375 26.269531 -40.953125 23.65625 -40.953125 C 21.050781 -40.953125 19.171875 -38.929688 18.015625 -34.890625 C 16.859375 -30.859375 16.28125 -26.234375 16.28125 -21.015625 Z M 16.28125 -20.015625 "/></g></g></g><g fill="#ffffff" fill-opacity="1"><g transform="translate(476.123887, 283.314246)"><g><path d="M 51.421875 -1.8125 L 55.96875 -1.8125 L 55.96875 0 L 33.21875 0 L 33.21875 -1.8125 L 37.765625 -1.8125 L 37.765625 -27.296875 C 37.765625 -31.609375 37.125 -34.671875 35.84375 -36.484375 C 34.570312 -38.304688 32.664062 -39.21875 30.125 -39.21875 C 26.664062 -39.21875 23.90625 -37.398438 21.84375 -33.765625 L 21.84375 -1.8125 L 26.390625 -1.8125 L 26.390625 0 L 3.640625 0 L 3.640625 -1.8125 L 8.1875 -1.8125 L 8.1875 -40.046875 L 3.640625 -40.046875 L 3.640625 -41.859375 L 21.84375 -41.859375 L 21.84375 -37.125 C 22.988281 -38.707031 24.789062 -40.054688 27.25 -41.171875 C 29.707031 -42.296875 32.363281 -42.859375 35.21875 -42.859375 C 46.019531 -42.859375 51.421875 -37.003906 51.421875 -25.296875 Z M 51.421875 -1.8125 "/></g></g></g><g fill="#ffffff" fill-opacity="1"><g transform="translate(533.45125, 283.314246)"><g><path d="M 20.390625 -40.046875 L 20.390625 -17.84375 C 20.390625 -12.625 20.597656 -9.453125 21.015625 -8.328125 C 21.441406 -7.203125 21.898438 -6.242188 22.390625 -5.453125 C 23.296875 -3.878906 24.882812 -3.09375 27.15625 -3.09375 C 29.4375 -3.09375 31.03125 -3.394531 31.9375 -4 L 31.9375 -2.1875 C 29.03125 -0.125 25.847656 0.90625 22.390625 0.90625 C 17.285156 0.90625 13.398438 -0.304688 10.734375 -2.734375 C 8.066406 -5.160156 6.734375 -9.5 6.734375 -15.75 L 6.734375 -40.046875 L 0 -40.046875 L 0 -41.859375 L 6.734375 -41.859375 C 9.648438 -42.347656 12.226562 -43.757812 14.46875 -46.09375 C 16.71875 -48.425781 18.265625 -51.65625 19.109375 -55.78125 L 20.390625 -55.78125 L 20.390625 -41.859375 L 30.9375 -41.859375 L 30.9375 -40.046875 Z M 20.390625 -40.046875 "/></g></g></g><g fill="#ffffff" fill-opacity="1"><g transform="translate(564.93574, 283.314246)"><g><path d="M 21.84375 -1.8125 L 26.390625 -1.8125 L 26.390625 0 L 3.640625 0 L 3.640625 -1.8125 L 8.1875 -1.8125 L 8.1875 -40.046875 L 4.546875 -40.046875 L 4.546875 -41.859375 L 21.84375 -41.859375 Z M 22.65625 -53.90625 C 22.65625 -51.695312 21.878906 -49.816406 20.328125 -48.265625 C 18.785156 -46.722656 16.90625 -45.953125 14.6875 -45.953125 C 12.476562 -45.953125 10.582031 -46.722656 9 -48.265625 C 7.425781 -49.816406 6.640625 -51.695312 6.640625 -53.90625 C 6.640625 -56.125 7.425781 -58.019531 9 -59.59375 C 10.582031 -61.175781 12.476562 -61.96875 14.6875 -61.96875 C 16.90625 -61.96875 18.785156 -61.175781 20.328125 -59.59375 C 21.878906 -58.019531 22.65625 -56.125 22.65625 -53.90625 Z M 22.65625 -53.90625 "/></g></g></g><g fill="#ffffff" fill-opacity="1"><g transform="translate(592.689376, 283.314246)"><g><path d="M 20.390625 -40.046875 L 20.390625 -17.84375 C 20.390625 -12.625 20.597656 -9.453125 21.015625 -8.328125 C 21.441406 -7.203125 21.898438 -6.242188 22.390625 -5.453125 C 23.296875 -3.878906 24.882812 -3.09375 27.15625 -3.09375 C 29.4375 -3.09375 31.03125 -3.394531 31.9375 -4 L 31.9375 -2.1875 C 29.03125 -0.125 25.847656 0.90625 22.390625 0.90625 C 17.285156 0.90625 13.398438 -0.304688 10.734375 -2.734375 C 8.066406 -5.160156 6.734375 -9.5 6.734375 -15.75 L 6.734375 -40.046875 L 0 -40.046875 L 0 -41.859375 L 6.734375 -41.859375 C 9.648438 -42.347656 12.226562 -43.757812 14.46875 -46.09375 C 16.71875 -48.425781 18.265625 -51.65625 19.109375 -55.78125 L 20.390625 -55.78125 L 20.390625 -41.859375 L 30.9375 -41.859375 L 30.9375 -40.046875 Z M 20.390625 -40.046875 "/></g></g></g><g fill="#ffffff" fill-opacity="1"><g transform="translate(624.173854, 283.314246)"><g><path d="M 47.78125 -1.8125 C 47.164062 -1.207031 46.007812 -0.675781 44.3125 -0.21875 C 42.613281 0.226562 40.644531 0.453125 38.40625 0.453125 C 33.425781 0.453125 30.300781 -1.03125 29.03125 -4 C 26 -0.84375 21.359375 0.734375 15.109375 0.734375 C 11.765625 0.734375 9.015625 -0.0351562 6.859375 -1.578125 C 4.710938 -3.128906 3.640625 -5.425781 3.640625 -8.46875 C 3.640625 -12.53125 5.21875 -15.664062 8.375 -17.875 C 11.53125 -20.09375 17.050781 -21.65625 24.9375 -22.5625 L 28.578125 -23.015625 L 28.578125 -27.484375 C 28.578125 -32.765625 28.179688 -36.3125 27.390625 -38.125 C 26.597656 -39.945312 25.035156 -40.859375 22.703125 -40.859375 C 20.367188 -40.859375 18.867188 -40.539062 18.203125 -39.90625 C 17.535156 -39.269531 17.289062 -38.539062 17.46875 -37.71875 C 17.65625 -36.894531 17.957031 -35.816406 18.375 -34.484375 C 18.800781 -33.148438 19.015625 -32.085938 19.015625 -31.296875 C 19.015625 -29.421875 18.363281 -27.828125 17.0625 -26.515625 C 15.757812 -25.210938 14.179688 -24.5625 12.328125 -24.5625 C 10.484375 -24.5625 8.890625 -25.210938 7.546875 -26.515625 C 6.210938 -27.828125 5.546875 -29.421875 5.546875 -31.296875 C 5.546875 -34.390625 7.140625 -37.046875 10.328125 -39.265625 C 13.515625 -41.484375 18.273438 -42.59375 24.609375 -42.59375 C 30.953125 -42.59375 35.472656 -41.347656 38.171875 -38.859375 C 40.867188 -36.367188 42.21875 -31.96875 42.21875 -25.65625 L 42.21875 -9.28125 C 42.21875 -6.0625 42.613281 -4.039062 43.40625 -3.21875 C 44.195312 -2.40625 45.65625 -2.242188 47.78125 -2.734375 Z M 16.28125 -10.28125 C 16.59375 -7.976562 17.445312 -6.203125 18.84375 -4.953125 C 20.238281 -3.710938 21.859375 -3.09375 23.703125 -3.09375 C 25.554688 -3.09375 27.179688 -4.003906 28.578125 -5.828125 L 28.578125 -21.296875 L 25.296875 -20.84375 C 22.503906 -20.476562 20.242188 -19.414062 18.515625 -17.65625 C 16.785156 -15.894531 16.039062 -13.4375 16.28125 -10.28125 Z M 16.28125 -10.28125 "/></g></g></g><g fill="#ffffff" fill-opacity="1"><g transform="translate(376.73388, 340.07114)"><g><path d="M 7.5625 -15.0625 C 7.5625 -15.101562 7.691406 -15.125 7.953125 -15.125 C 8.210938 -15.125 8.34375 -15.097656 8.34375 -15.046875 C 8.207031 -14.679688 7.960938 -14.160156 7.609375 -13.484375 C 7.378906 -13.367188 7.222656 -13.3125 7.140625 -13.3125 C 7.054688 -13.3125 6.972656 -13.335938 6.890625 -13.390625 C 6.742188 -13.597656 6.640625 -13.804688 6.578125 -14.015625 C 6.515625 -14.234375 6.453125 -14.421875 6.390625 -14.578125 C 6.335938 -14.742188 6.285156 -14.910156 6.234375 -15.078125 L 6.234375 -15.09375 C 6.234375 -15.15625 6.34375 -15.1875 6.5625 -15.1875 C 6.789062 -15.1875 6.910156 -15.171875 6.921875 -15.140625 C 6.941406 -15.109375 6.992188 -14.972656 7.078125 -14.734375 C 7.160156 -14.492188 7.257812 -14.347656 7.375 -14.296875 C 7.445312 -14.535156 7.507812 -14.789062 7.5625 -15.0625 Z M 6.6875 -12.90625 L 7.34375 -12.890625 C 7.96875 -12.878906 8.550781 -12.765625 9.09375 -12.546875 C 10.070312 -12.210938 10.695312 -11.882812 10.96875 -11.5625 C 11.082031 -11.4375 11.207031 -11.226562 11.34375 -10.9375 C 11.476562 -10.65625 11.546875 -10.289062 11.546875 -9.84375 C 11.546875 -9.394531 11.304688 -8.707031 10.828125 -7.78125 C 10.546875 -7.96875 10.359375 -8.265625 10.265625 -8.671875 C 10.179688 -9.085938 10.09375 -9.351562 10 -9.46875 L 9.5 -10.15625 C 9.257812 -10.5 9.09375 -10.71875 9 -10.8125 C 8.914062 -10.914062 8.753906 -11.050781 8.515625 -11.21875 C 8.078125 -11.53125 7.53125 -11.6875 6.875 -11.6875 C 6.226562 -11.6875 5.554688 -11.398438 4.859375 -10.828125 C 4.191406 -10.316406 3.707031 -9.753906 3.40625 -9.140625 C 3.101562 -8.535156 2.90625 -7.789062 2.8125 -6.90625 C 2.78125 -6.632812 2.765625 -6.378906 2.765625 -6.140625 C 2.765625 -5.097656 3.125 -4.140625 3.84375 -3.265625 C 4.25 -2.753906 4.6875 -2.378906 5.15625 -2.140625 C 5.625 -1.898438 6.207031 -1.738281 6.90625 -1.65625 C 7.082031 -1.632812 7.21875 -1.625 7.3125 -1.625 C 7.769531 -1.625 8.351562 -1.765625 9.0625 -2.046875 C 9.769531 -2.328125 10.265625 -2.488281 10.546875 -2.53125 L 10.59375 -2.53125 C 10.738281 -2.53125 10.8125 -2.398438 10.8125 -2.140625 C 10.8125 -1.878906 10.71875 -1.628906 10.53125 -1.390625 C 10.351562 -1.148438 10.179688 -0.953125 10.015625 -0.796875 C 9.859375 -0.648438 9.671875 -0.53125 9.453125 -0.4375 C 9.234375 -0.351562 9.050781 -0.28125 8.90625 -0.21875 C 8.757812 -0.164062 8.535156 -0.128906 8.234375 -0.109375 L 7.59375 -0.03125 C 7.363281 -0.0078125 6.875 0 6.125 0 L 5.859375 0 C 5.097656 0 4.375 -0.179688 3.6875 -0.546875 C 3 -0.921875 2.445312 -1.300781 2.03125 -1.6875 C 1.625 -2.070312 1.207031 -2.640625 0.78125 -3.390625 C 0.351562 -4.140625 0.140625 -4.894531 0.140625 -5.65625 C 0.140625 -6.613281 0.273438 -7.40625 0.546875 -8.03125 C 0.816406 -8.664062 1.195312 -9.316406 1.6875 -9.984375 C 2.1875 -10.660156 2.660156 -11.179688 3.109375 -11.546875 C 3.554688 -11.910156 4.085938 -12.226562 4.703125 -12.5 C 5.316406 -12.769531 5.976562 -12.90625 6.6875 -12.90625 Z M 6.6875 -12.90625 "/></g></g></g><g fill="#ffffff" fill-opacity="1"><g transform="translate(389.32783, 340.07114)"><g><path d="M 4.40625 -0.0625 L 3.859375 -0.078125 C 3.710938 -0.0664062 3.523438 -0.0625 3.296875 -0.0625 C 2.648438 -0.0625 2.050781 -0.304688 1.5 -0.796875 C 0.90625 -1.378906 0.539062 -1.96875 0.40625 -2.5625 C 0.289062 -3.007812 0.234375 -3.429688 0.234375 -3.828125 C 0.234375 -4.234375 0.304688 -4.695312 0.453125 -5.21875 C 0.609375 -5.738281 0.773438 -6.160156 0.953125 -6.484375 C 1.140625 -6.816406 1.421875 -7.128906 1.796875 -7.421875 C 2.429688 -7.921875 3.164062 -8.171875 4 -8.171875 L 4.234375 -8.171875 C 4.535156 -8.160156 4.742188 -8.148438 4.859375 -8.140625 C 5.191406 -8.078125 5.554688 -7.847656 5.953125 -7.453125 C 6.359375 -7.054688 6.65625 -6.65625 6.84375 -6.25 C 7.0625 -5.757812 7.171875 -4.960938 7.171875 -3.859375 C 7.171875 -3.390625 7.078125 -2.847656 6.890625 -2.234375 C 6.710938 -1.628906 6.472656 -1.171875 6.171875 -0.859375 C 5.867188 -0.546875 5.488281 -0.3125 5.03125 -0.15625 C 4.820312 -0.09375 4.613281 -0.0625 4.40625 -0.0625 Z M 3.796875 -1.203125 L 4.3125 -1.140625 C 4.644531 -1.140625 4.929688 -1.285156 5.171875 -1.578125 C 5.273438 -1.691406 5.410156 -1.976562 5.578125 -2.4375 C 5.753906 -2.90625 5.84375 -3.332031 5.84375 -3.71875 C 5.84375 -4.863281 5.597656 -5.753906 5.109375 -6.390625 C 4.835938 -6.722656 4.585938 -6.910156 4.359375 -6.953125 C 4.140625 -7.003906 3.914062 -7.03125 3.6875 -7.03125 C 3.457031 -7.03125 3.203125 -6.9375 2.921875 -6.75 C 2.648438 -6.570312 2.40625 -6.195312 2.1875 -5.625 C 1.976562 -5.050781 1.875 -4.578125 1.875 -4.203125 C 1.875 -2.984375 2.15625 -2.113281 2.71875 -1.59375 C 2.914062 -1.40625 3.273438 -1.273438 3.796875 -1.203125 Z M 3.796875 -1.203125 "/></g></g></g><g fill="#ffffff" fill-opacity="1"><g transform="translate(397.496499, 340.07114)"><g/></g></g><g fill="#ffffff" fill-opacity="1"><g transform="translate(406.382781, 340.07114)"><g><path d="M 3.046875 -9.953125 C 3.171875 -10.222656 3.351562 -10.359375 3.59375 -10.359375 C 3.832031 -10.359375 4.007812 -10.25 4.125 -10.03125 C 4.25 -9.8125 4.3125 -9.625 4.3125 -9.46875 C 4.3125 -9.320312 4.25 -9.171875 4.125 -9.015625 C 4 -8.867188 3.800781 -8.796875 3.53125 -8.796875 C 3.269531 -8.796875 3.109375 -8.890625 3.046875 -9.078125 C 2.960938 -9.242188 2.921875 -9.394531 2.921875 -9.53125 C 2.921875 -9.675781 2.960938 -9.816406 3.046875 -9.953125 Z M 2.546875 -6.5 L 2.125 -6.453125 C 2 -6.453125 1.90625 -6.492188 1.84375 -6.578125 C 1.695312 -6.785156 1.625 -6.984375 1.625 -7.171875 C 1.625 -7.367188 1.695312 -7.554688 1.84375 -7.734375 C 2.84375 -7.992188 3.507812 -8.125 3.84375 -8.125 C 4.175781 -8.125 4.390625 -8.113281 4.484375 -8.09375 L 4.484375 1.640625 C 4.335938 2.140625 4.128906 2.546875 3.859375 2.859375 C 3.597656 3.171875 3.203125 3.492188 2.671875 3.828125 C 2.148438 4.160156 1.765625 4.328125 1.515625 4.328125 L 1.4375 4.328125 C 1.238281 4.328125 1.007812 4.257812 0.75 4.125 C 0.351562 3.90625 0.15625 3.609375 0.15625 3.234375 C 0.15625 3.097656 0.195312 2.914062 0.28125 2.6875 C 0.375 2.46875 0.53125 2.3125 0.75 2.21875 C 0.976562 2.125 1.160156 2.078125 1.296875 2.078125 C 1.429688 2.078125 1.554688 2.101562 1.671875 2.15625 C 1.785156 2.207031 1.867188 2.296875 1.921875 2.421875 C 1.972656 2.546875 2.035156 2.628906 2.109375 2.671875 C 2.328125 2.796875 2.472656 2.859375 2.546875 2.859375 C 2.628906 2.859375 2.734375 2.820312 2.859375 2.75 C 2.847656 1.070312 2.832031 0.234375 2.8125 0.234375 C 2.800781 0.234375 2.796875 -0.460938 2.796875 -1.859375 C 2.796875 -3.253906 2.800781 -4.765625 2.8125 -6.390625 C 2.757812 -6.460938 2.671875 -6.5 2.546875 -6.5 Z M 2.546875 -6.5 "/></g></g></g><g fill="#ffffff" fill-opacity="1"><g transform="translate(412.056889, 340.07114)"><g><path d="M 4.265625 -5.859375 L 4.328125 -6.453125 C 4.328125 -6.660156 4.253906 -6.820312 4.109375 -6.9375 C 3.941406 -7.039062 3.765625 -7.09375 3.578125 -7.09375 C 3.398438 -7.09375 3.1875 -7.007812 2.9375 -6.84375 C 2.414062 -6.488281 2.15625 -6.175781 2.15625 -5.90625 C 2.15625 -5.863281 2.171875 -5.816406 2.203125 -5.765625 C 2.265625 -5.703125 2.617188 -5.671875 3.265625 -5.671875 C 3.910156 -5.671875 4.242188 -5.734375 4.265625 -5.859375 Z M 4.5 -0.046875 L 3.859375 -0.078125 C 3.710938 -0.0664062 3.523438 -0.0625 3.296875 -0.0625 C 2.648438 -0.0625 2.050781 -0.304688 1.5 -0.796875 C 0.90625 -1.378906 0.539062 -1.96875 0.40625 -2.5625 C 0.289062 -3.007812 0.234375 -3.429688 0.234375 -3.828125 C 0.234375 -4.234375 0.304688 -4.695312 0.453125 -5.21875 C 0.609375 -5.738281 0.773438 -6.160156 0.953125 -6.484375 C 1.140625 -6.816406 1.421875 -7.128906 1.796875 -7.421875 C 2.421875 -7.898438 3.070312 -8.140625 3.75 -8.140625 C 4.4375 -8.140625 4.945312 -8.023438 5.28125 -7.796875 C 5.4375 -7.691406 5.597656 -7.46875 5.765625 -7.125 C 5.941406 -6.78125 6.03125 -6.46875 6.03125 -6.1875 C 6.03125 -5.90625 5.96875 -5.597656 5.84375 -5.265625 C 5.726562 -4.941406 5.5625 -4.773438 5.34375 -4.765625 C 3.96875 -4.640625 3.054688 -4.578125 2.609375 -4.578125 C 2.160156 -4.578125 1.929688 -4.582031 1.921875 -4.59375 C 1.890625 -4.363281 1.875 -4.144531 1.875 -3.9375 C 1.875 -3.738281 1.898438 -3.476562 1.953125 -3.15625 C 2.003906 -2.84375 2.078125 -2.570312 2.171875 -2.34375 C 2.265625 -2.125 2.425781 -1.914062 2.65625 -1.71875 C 2.757812 -1.613281 2.867188 -1.546875 2.984375 -1.515625 C 3.109375 -1.492188 3.210938 -1.472656 3.296875 -1.453125 C 3.378906 -1.429688 3.515625 -1.421875 3.703125 -1.421875 L 4.265625 -1.375 C 4.460938 -1.375 4.617188 -1.410156 4.734375 -1.484375 C 4.847656 -1.566406 4.921875 -1.640625 4.953125 -1.703125 C 4.984375 -1.773438 5.015625 -1.875 5.046875 -2 C 5.085938 -2.125 5.117188 -2.210938 5.140625 -2.265625 C 5.203125 -2.453125 5.3125 -2.546875 5.46875 -2.546875 C 5.625 -2.546875 5.753906 -2.5 5.859375 -2.40625 C 5.972656 -2.3125 6.03125 -2.203125 6.03125 -2.078125 L 6.03125 -2.0625 C 6 -1.570312 5.972656 -1.289062 5.953125 -1.21875 C 5.941406 -1.144531 5.863281 -0.984375 5.71875 -0.734375 C 5.570312 -0.492188 5.378906 -0.316406 5.140625 -0.203125 C 4.910156 -0.0976562 4.695312 -0.046875 4.5 -0.046875 Z M 4.5 -0.046875 "/></g></g></g><g fill="#ffffff" fill-opacity="1"><g transform="translate(419.063708, 340.07114)"><g/></g></g><g fill="#ffffff" fill-opacity="1"><g transform="translate(427.94999, 340.07114)"><g><path d="M 2.875 -5.703125 L 2.875 -2.203125 C 2.875 -1.953125 3.023438 -1.738281 3.328125 -1.5625 C 3.628906 -1.382812 3.875 -1.296875 4.0625 -1.296875 C 4.707031 -1.296875 5.242188 -1.582031 5.671875 -2.15625 C 5.921875 -2.488281 6.09375 -3.007812 6.1875 -3.71875 C 6.207031 -3.882812 6.21875 -4.019531 6.21875 -4.125 C 6.21875 -4.238281 6.191406 -4.375 6.140625 -4.53125 C 6.003906 -5 5.769531 -5.414062 5.4375 -5.78125 C 5.039062 -6.175781 4.609375 -6.375 4.140625 -6.375 C 3.953125 -6.375 3.800781 -6.347656 3.6875 -6.296875 C 3.582031 -6.253906 3.5 -6.222656 3.4375 -6.203125 C 3.101562 -6.085938 2.921875 -5.96875 2.890625 -5.84375 C 2.878906 -5.800781 2.875 -5.753906 2.875 -5.703125 Z M 4.375 0.15625 L 3.53125 0.0625 L 3.40625 0.0625 C 3.394531 0.382812 3.390625 0.726562 3.390625 1.09375 L 3.421875 3.046875 C 3.460938 3.160156 3.59375 3.269531 3.8125 3.375 C 4.03125 3.476562 4.164062 3.585938 4.21875 3.703125 C 4.269531 3.816406 4.296875 3.953125 4.296875 4.109375 C 4.296875 4.265625 4.238281 4.398438 4.125 4.515625 L 2.21875 4.515625 C 1.5625 4.515625 1.039062 4.503906 0.65625 4.484375 C 0.445312 4.359375 0.34375 4.195312 0.34375 4 L 0.359375 3.890625 C 0.378906 3.722656 0.515625 3.566406 0.765625 3.421875 C 1.015625 3.285156 1.171875 3.148438 1.234375 3.015625 L 1.234375 1.0625 L 1.21875 -5.796875 C 1.101562 -5.992188 0.992188 -6.113281 0.890625 -6.15625 C 0.785156 -6.207031 0.664062 -6.257812 0.53125 -6.3125 C 0.394531 -6.363281 0.273438 -6.421875 0.171875 -6.484375 C 0.242188 -6.847656 0.453125 -7.132812 0.796875 -7.34375 C 0.984375 -7.457031 1.222656 -7.597656 1.515625 -7.765625 L 1.921875 -7.953125 L 2.03125 -7.953125 C 2.125 -7.953125 2.191406 -7.9375 2.234375 -7.90625 C 2.273438 -7.875 2.347656 -7.789062 2.453125 -7.65625 C 2.566406 -7.53125 2.710938 -7.398438 2.890625 -7.265625 C 3.015625 -7.328125 3.140625 -7.398438 3.265625 -7.484375 C 3.398438 -7.578125 3.5 -7.632812 3.5625 -7.65625 C 3.644531 -7.707031 3.820312 -7.769531 4.09375 -7.84375 C 4.375 -7.914062 4.617188 -7.953125 4.828125 -7.953125 C 5.046875 -7.953125 5.375 -7.898438 5.8125 -7.796875 C 6.625 -7.597656 7.128906 -7.082031 7.328125 -6.25 C 7.335938 -6.207031 7.359375 -6.117188 7.390625 -5.984375 C 7.421875 -5.847656 7.472656 -5.625 7.546875 -5.3125 C 7.617188 -5 7.65625 -4.582031 7.65625 -4.0625 L 7.65625 -3.765625 C 7.65625 -3.515625 7.648438 -3.316406 7.640625 -3.171875 L 7.609375 -2.78125 C 7.585938 -2.519531 7.53125 -2.273438 7.4375 -2.046875 C 7.320312 -1.773438 7.203125 -1.5625 7.078125 -1.40625 L 6.953125 -1.234375 C 6.929688 -1.210938 6.867188 -1.15625 6.765625 -1.0625 L 6.578125 -0.875 C 6.109375 -0.425781 5.738281 -0.140625 5.46875 -0.015625 C 5.195312 0.0976562 4.851562 0.15625 4.4375 0.15625 Z M 4.375 0.15625 "/></g></g></g><g fill="#ffffff" fill-opacity="1"><g transform="translate(436.836275, 340.07114)"><g><path d="M 3.203125 -2.84375 L 3.171875 -1.875 C 3.210938 -1.789062 3.316406 -1.703125 3.484375 -1.609375 C 3.660156 -1.515625 3.75 -1.335938 3.75 -1.078125 C 3.75 -0.828125 3.691406 -0.640625 3.578125 -0.515625 C 3.328125 -0.441406 2.878906 -0.351562 2.234375 -0.25 C 1.597656 -0.15625 1.132812 -0.0703125 0.84375 0 C 0.726562 -0.0390625 0.632812 -0.148438 0.5625 -0.328125 C 0.5 -0.515625 0.5 -0.664062 0.5625 -0.78125 C 0.625 -0.90625 0.75 -1.015625 0.9375 -1.109375 C 1.132812 -1.210938 1.265625 -1.328125 1.328125 -1.453125 C 1.359375 -1.785156 1.375 -2.210938 1.375 -2.734375 L 1.34375 -4.453125 C 1.34375 -4.921875 1.351562 -5.304688 1.375 -5.609375 C 1.300781 -5.753906 1.117188 -5.90625 0.828125 -6.0625 C 0.535156 -6.21875 0.390625 -6.390625 0.390625 -6.578125 C 0.453125 -6.660156 0.535156 -6.796875 0.640625 -6.984375 C 0.742188 -7.171875 0.816406 -7.28125 0.859375 -7.3125 L 1.015625 -7.546875 C 1.085938 -7.648438 1.15625 -7.722656 1.21875 -7.765625 L 1.4375 -7.890625 C 1.664062 -8.023438 1.875 -8.09375 2.0625 -8.09375 C 2.257812 -8.09375 2.445312 -8.046875 2.625 -7.953125 C 2.789062 -7.796875 2.890625 -7.703125 2.921875 -7.671875 C 2.953125 -7.648438 3.003906 -7.628906 3.078125 -7.609375 C 3.160156 -7.597656 3.269531 -7.554688 3.40625 -7.484375 C 3.519531 -7.554688 3.6875 -7.691406 3.90625 -7.890625 C 4.125 -8.097656 4.378906 -8.203125 4.671875 -8.203125 L 4.734375 -8.203125 C 5.304688 -8.160156 5.691406 -7.738281 5.890625 -6.9375 C 5.929688 -6.8125 5.953125 -6.675781 5.953125 -6.53125 C 5.953125 -6.382812 5.851562 -6.171875 5.65625 -5.890625 C 5.457031 -5.609375 5.238281 -5.46875 5 -5.46875 L 4.921875 -5.46875 C 4.773438 -5.5 4.65625 -5.644531 4.5625 -5.90625 C 4.476562 -6.175781 4.367188 -6.328125 4.234375 -6.359375 C 3.859375 -6.109375 3.515625 -5.859375 3.203125 -5.609375 C 3.179688 -5.054688 3.171875 -4.507812 3.171875 -3.96875 Z M 3.203125 -2.84375 "/></g></g></g><g fill="#ffffff" fill-opacity="1"><g transform="translate(443.894355, 340.07114)"><g><path d="M 4.265625 -5.859375 L 4.328125 -6.453125 C 4.328125 -6.660156 4.253906 -6.820312 4.109375 -6.9375 C 3.941406 -7.039062 3.765625 -7.09375 3.578125 -7.09375 C 3.398438 -7.09375 3.1875 -7.007812 2.9375 -6.84375 C 2.414062 -6.488281 2.15625 -6.175781 2.15625 -5.90625 C 2.15625 -5.863281 2.171875 -5.816406 2.203125 -5.765625 C 2.265625 -5.703125 2.617188 -5.671875 3.265625 -5.671875 C 3.910156 -5.671875 4.242188 -5.734375 4.265625 -5.859375 Z M 4.5 -0.046875 L 3.859375 -0.078125 C 3.710938 -0.0664062 3.523438 -0.0625 3.296875 -0.0625 C 2.648438 -0.0625 2.050781 -0.304688 1.5 -0.796875 C 0.90625 -1.378906 0.539062 -1.96875 0.40625 -2.5625 C 0.289062 -3.007812 0.234375 -3.429688 0.234375 -3.828125 C 0.234375 -4.234375 0.304688 -4.695312 0.453125 -5.21875 C 0.609375 -5.738281 0.773438 -6.160156 0.953125 -6.484375 C 1.140625 -6.816406 1.421875 -7.128906 1.796875 -7.421875 C 2.421875 -7.898438 3.070312 -8.140625 3.75 -8.140625 C 4.4375 -8.140625 4.945312 -8.023438 5.28125 -7.796875 C 5.4375 -7.691406 5.597656 -7.46875 5.765625 -7.125 C 5.941406 -6.78125 6.03125 -6.46875 6.03125 -6.1875 C 6.03125 -5.90625 5.96875 -5.597656 5.84375 -5.265625 C 5.726562 -4.941406 5.5625 -4.773438 5.34375 -4.765625 C 3.96875 -4.640625 3.054688 -4.578125 2.609375 -4.578125 C 2.160156 -4.578125 1.929688 -4.582031 1.921875 -4.59375 C 1.890625 -4.363281 1.875 -4.144531 1.875 -3.9375 C 1.875 -3.738281 1.898438 -3.476562 1.953125 -3.15625 C 2.003906 -2.84375 2.078125 -2.570312 2.171875 -2.34375 C 2.265625 -2.125 2.425781 -1.914062 2.65625 -1.71875 C 2.757812 -1.613281 2.867188 -1.546875 2.984375 -1.515625 C 3.109375 -1.492188 3.210938 -1.472656 3.296875 -1.453125 C 3.378906 -1.429688 3.515625 -1.421875 3.703125 -1.421875 L 4.265625 -1.375 C 4.460938 -1.375 4.617188 -1.410156 4.734375 -1.484375 C 4.847656 -1.566406 4.921875 -1.640625 4.953125 -1.703125 C 4.984375 -1.773438 5.015625 -1.875 5.046875 -2 C 5.085938 -2.125 5.117188 -2.210938 5.140625 -2.265625 C 5.203125 -2.453125 5.3125 -2.546875 5.46875 -2.546875 C 5.625 -2.546875 5.753906 -2.5 5.859375 -2.40625 C 5.972656 -2.3125 6.03125 -2.203125 6.03125 -2.078125 L 6.03125 -2.0625 C 6 -1.570312 5.972656 -1.289062 5.953125 -1.21875 C 5.941406 -1.144531 5.863281 -0.984375 5.71875 -0.734375 C 5.570312 -0.492188 5.378906 -0.316406 5.140625 -0.203125 C 4.910156 -0.0976562 4.695312 -0.046875 4.5 -0.046875 Z M 4.5 -0.046875 "/></g></g></g><g fill="#ffffff" fill-opacity="1"><g transform="translate(450.901176, 340.07114)"><g><path d="M 3.046875 -9.953125 C 3.171875 -10.222656 3.351562 -10.359375 3.59375 -10.359375 C 3.832031 -10.359375 4.007812 -10.25 4.125 -10.03125 C 4.25 -9.8125 4.3125 -9.625 4.3125 -9.46875 C 4.3125 -9.320312 4.25 -9.171875 4.125 -9.015625 C 4 -8.867188 3.800781 -8.796875 3.53125 -8.796875 C 3.269531 -8.796875 3.109375 -8.890625 3.046875 -9.078125 C 2.960938 -9.242188 2.921875 -9.394531 2.921875 -9.53125 C 2.921875 -9.675781 2.960938 -9.816406 3.046875 -9.953125 Z M 2.546875 -6.5 L 2.125 -6.453125 C 2 -6.453125 1.90625 -6.492188 1.84375 -6.578125 C 1.695312 -6.785156 1.625 -6.984375 1.625 -7.171875 C 1.625 -7.367188 1.695312 -7.554688 1.84375 -7.734375 C 2.84375 -7.992188 3.507812 -8.125 3.84375 -8.125 C 4.175781 -8.125 4.390625 -8.113281 4.484375 -8.09375 L 4.484375 1.640625 C 4.335938 2.140625 4.128906 2.546875 3.859375 2.859375 C 3.597656 3.171875 3.203125 3.492188 2.671875 3.828125 C 2.148438 4.160156 1.765625 4.328125 1.515625 4.328125 L 1.4375 4.328125 C 1.238281 4.328125 1.007812 4.257812 0.75 4.125 C 0.351562 3.90625 0.15625 3.609375 0.15625 3.234375 C 0.15625 3.097656 0.195312 2.914062 0.28125 2.6875 C 0.375 2.46875 0.53125 2.3125 0.75 2.21875 C 0.976562 2.125 1.160156 2.078125 1.296875 2.078125 C 1.429688 2.078125 1.554688 2.101562 1.671875 2.15625 C 1.785156 2.207031 1.867188 2.296875 1.921875 2.421875 C 1.972656 2.546875 2.035156 2.628906 2.109375 2.671875 C 2.328125 2.796875 2.472656 2.859375 2.546875 2.859375 C 2.628906 2.859375 2.734375 2.820312 2.859375 2.75 C 2.847656 1.070312 2.832031 0.234375 2.8125 0.234375 C 2.800781 0.234375 2.796875 -0.460938 2.796875 -1.859375 C 2.796875 -3.253906 2.800781 -4.765625 2.8125 -6.390625 C 2.757812 -6.460938 2.671875 -6.5 2.546875 -6.5 Z M 2.546875 -6.5 "/></g></g></g><g fill="#ffffff" fill-opacity="1"><g transform="translate(456.575288, 340.07114)"><g><path d="M 6.125 -0.046875 L 5.78125 -0.03125 C 5.570312 -0.0078125 5.398438 0 5.265625 0 C 5.140625 0 5.015625 -0.03125 4.890625 -0.09375 C 4.765625 -0.15625 4.675781 -0.207031 4.625 -0.25 C 4.582031 -0.300781 4.535156 -0.359375 4.484375 -0.421875 C 4.441406 -0.492188 4.398438 -0.550781 4.359375 -0.59375 C 4.328125 -0.632812 4.289062 -0.6875 4.25 -0.75 C 4.175781 -0.882812 4.09375 -0.953125 4 -0.953125 L 3.9375 -0.953125 C 3.78125 -0.953125 3.609375 -0.863281 3.421875 -0.6875 C 3.234375 -0.519531 3.101562 -0.414062 3.03125 -0.375 C 2.96875 -0.34375 2.890625 -0.296875 2.796875 -0.234375 C 2.515625 -0.0234375 2.171875 0.078125 1.765625 0.078125 C 1.367188 0.078125 1.039062 -0.00390625 0.78125 -0.171875 C 0.519531 -0.335938 0.34375 -0.601562 0.25 -0.96875 C 0.164062 -1.34375 0.125 -1.660156 0.125 -1.921875 C 0.125 -2.585938 0.445312 -3.203125 1.09375 -3.765625 C 1.488281 -4.078125 2.007812 -4.363281 2.65625 -4.625 C 2.757812 -4.675781 2.945312 -4.707031 3.21875 -4.71875 C 3.488281 -4.738281 3.679688 -4.800781 3.796875 -4.90625 C 3.921875 -5.007812 4.003906 -5.160156 4.046875 -5.359375 C 4.097656 -5.566406 4.125 -5.738281 4.125 -5.875 C 4.125 -6.007812 4.109375 -6.140625 4.078125 -6.265625 C 4.054688 -6.390625 4.039062 -6.5 4.03125 -6.59375 C 4.019531 -6.6875 4.007812 -6.753906 4 -6.796875 C 3.988281 -6.847656 3.972656 -6.90625 3.953125 -6.96875 C 3.898438 -7.082031 3.820312 -7.175781 3.71875 -7.25 C 3.625 -7.320312 3.53125 -7.359375 3.4375 -7.359375 C 3.351562 -7.359375 3.171875 -7.328125 2.890625 -7.265625 C 2.617188 -7.203125 2.410156 -7.082031 2.265625 -6.90625 C 2.128906 -6.726562 2.0625 -6.46875 2.0625 -6.125 L 2.0625 -5.796875 C 2.050781 -5.585938 1.957031 -5.414062 1.78125 -5.28125 C 1.601562 -5.15625 1.429688 -5.09375 1.265625 -5.09375 C 0.660156 -5.09375 0.359375 -5.382812 0.359375 -5.96875 C 0.359375 -6.070312 0.363281 -6.144531 0.375 -6.1875 C 0.488281 -6.84375 0.710938 -7.3125 1.046875 -7.59375 C 1.390625 -7.882812 1.710938 -8.066406 2.015625 -8.140625 C 2.328125 -8.222656 2.738281 -8.28125 3.25 -8.3125 L 3.609375 -8.328125 C 3.972656 -8.328125 4.300781 -8.222656 4.59375 -8.015625 C 5.019531 -7.734375 5.273438 -7.347656 5.359375 -6.859375 C 5.453125 -6.367188 5.5 -5.734375 5.5 -4.953125 L 5.5 -4.515625 L 5.515625 -3.765625 L 5.53125 -3.390625 L 5.515625 -2.6875 C 5.515625 -2.46875 5.535156 -2.210938 5.578125 -1.921875 L 5.578125 -1.6875 C 5.578125 -1.5625 5.644531 -1.5 5.78125 -1.5 C 5.914062 -1.5 6.070312 -1.617188 6.25 -1.859375 C 6.4375 -2.109375 6.59375 -2.234375 6.71875 -2.234375 C 6.726562 -2.234375 6.773438 -2.21875 6.859375 -2.1875 C 6.941406 -2.15625 6.984375 -2.070312 6.984375 -1.9375 L 6.9375 -1.515625 L 6.921875 -1.171875 C 6.921875 -1.046875 6.910156 -0.957031 6.890625 -0.90625 C 6.878906 -0.863281 6.867188 -0.8125 6.859375 -0.75 C 6.847656 -0.695312 6.832031 -0.648438 6.8125 -0.609375 C 6.789062 -0.566406 6.765625 -0.523438 6.734375 -0.484375 C 6.585938 -0.242188 6.457031 -0.109375 6.34375 -0.078125 C 6.226562 -0.0546875 6.15625 -0.046875 6.125 -0.046875 Z M 4.296875 -3.046875 L 4.265625 -3.21875 C 4.242188 -3.53125 4.113281 -3.753906 3.875 -3.890625 C 3.789062 -3.941406 3.628906 -3.9375 3.390625 -3.875 C 3.160156 -3.8125 2.882812 -3.679688 2.5625 -3.484375 C 2 -3.117188 1.71875 -2.78125 1.71875 -2.46875 C 1.71875 -1.820312 1.898438 -1.421875 2.265625 -1.265625 C 2.316406 -1.242188 2.363281 -1.234375 2.40625 -1.234375 C 2.457031 -1.234375 2.535156 -1.265625 2.640625 -1.328125 C 2.753906 -1.390625 2.835938 -1.425781 2.890625 -1.4375 L 3.125 -1.53125 C 3.445312 -1.65625 3.679688 -1.804688 3.828125 -1.984375 C 4.140625 -2.335938 4.296875 -2.691406 4.296875 -3.046875 Z M 4.296875 -3.046875 "/></g></g></g><g fill="#ffffff" fill-opacity="1"><g transform="translate(464.487669, 340.07114)"><g><path d="M 4.90625 -6.75 C 4.90625 -7.039062 4.789062 -7.1875 4.5625 -7.1875 L 4.359375 -7.1875 C 4.242188 -7.1875 4.148438 -7.234375 4.078125 -7.328125 C 4.015625 -7.429688 3.984375 -7.578125 3.984375 -7.765625 C 3.984375 -7.953125 4.082031 -8.097656 4.28125 -8.203125 C 4.476562 -8.304688 4.6875 -8.359375 4.90625 -8.359375 C 5.125 -8.359375 5.328125 -8.351562 5.515625 -8.34375 C 5.703125 -8.332031 5.859375 -8.320312 5.984375 -8.3125 C 6.117188 -8.3125 6.210938 -8.304688 6.265625 -8.296875 C 6.328125 -8.285156 6.40625 -8.269531 6.5 -8.25 C 6.6875 -8.207031 6.835938 -8.109375 6.953125 -7.953125 C 7.066406 -7.796875 7.125 -7.644531 7.125 -7.5 C 7.125 -7.164062 7.015625 -6.976562 6.796875 -6.9375 C 6.710938 -6.914062 6.648438 -6.894531 6.609375 -6.875 C 6.191406 -6.25 5.757812 -5.460938 5.3125 -4.515625 C 4.875 -3.578125 4.488281 -2.828125 4.15625 -2.265625 C 4.03125 -1.984375 3.953125 -1.640625 3.921875 -1.234375 C 3.890625 -0.828125 3.820312 -0.5 3.71875 -0.25 C 3.582031 -0.164062 3.398438 -0.125 3.171875 -0.125 C 2.953125 -0.125 2.75 -0.222656 2.5625 -0.421875 C 2.414062 -0.734375 2.328125 -1.097656 2.296875 -1.515625 C 2.265625 -1.941406 2.210938 -2.300781 2.140625 -2.59375 C 1.972656 -3.175781 1.78125 -3.773438 1.5625 -4.390625 L 0.6875 -6.765625 C 0.625 -6.816406 0.5625 -6.84375 0.5 -6.84375 C 0.445312 -6.851562 0.410156 -6.867188 0.390625 -6.890625 C 0.0859375 -7.191406 -0.0625 -7.421875 -0.0625 -7.578125 C -0.0625 -7.742188 -0.0390625 -7.867188 0 -7.953125 C 0.132812 -8.222656 0.453125 -8.359375 0.953125 -8.359375 L 1.484375 -8.359375 C 1.597656 -8.367188 1.769531 -8.375 2 -8.375 C 2.851562 -8.375 3.28125 -8.171875 3.28125 -7.765625 C 3.28125 -7.523438 3.171875 -7.269531 2.953125 -7 C 2.898438 -6.9375 2.8125 -6.914062 2.6875 -6.9375 C 2.5625 -6.96875 2.488281 -6.957031 2.46875 -6.90625 C 2.445312 -6.8125 2.4375 -6.707031 2.4375 -6.59375 C 2.4375 -6.488281 2.460938 -6.28125 2.515625 -5.96875 C 2.566406 -5.664062 2.601562 -5.367188 2.625 -5.078125 C 2.65625 -4.796875 2.679688 -4.570312 2.703125 -4.40625 C 2.734375 -4.007812 2.9375 -3.515625 3.3125 -2.921875 L 3.53125 -2.9375 C 3.53125 -2.945312 3.578125 -3.023438 3.671875 -3.171875 C 3.929688 -3.578125 4.117188 -3.957031 4.234375 -4.3125 L 4.390625 -4.78125 C 4.421875 -4.882812 4.46875 -5.070312 4.53125 -5.34375 C 4.59375 -5.613281 4.644531 -5.8125 4.6875 -5.9375 L 4.78125 -6.203125 C 4.863281 -6.441406 4.90625 -6.625 4.90625 -6.75 Z M 4.90625 -6.75 "/></g></g></g><g fill="#ffffff" fill-opacity="1"><g transform="translate(472.587997, 340.07114)"><g><path d="M 4.40625 -0.0625 L 3.859375 -0.078125 C 3.710938 -0.0664062 3.523438 -0.0625 3.296875 -0.0625 C 2.648438 -0.0625 2.050781 -0.304688 1.5 -0.796875 C 0.90625 -1.378906 0.539062 -1.96875 0.40625 -2.5625 C 0.289062 -3.007812 0.234375 -3.429688 0.234375 -3.828125 C 0.234375 -4.234375 0.304688 -4.695312 0.453125 -5.21875 C 0.609375 -5.738281 0.773438 -6.160156 0.953125 -6.484375 C 1.140625 -6.816406 1.421875 -7.128906 1.796875 -7.421875 C 2.429688 -7.921875 3.164062 -8.171875 4 -8.171875 L 4.234375 -8.171875 C 4.535156 -8.160156 4.742188 -8.148438 4.859375 -8.140625 C 5.191406 -8.078125 5.554688 -7.847656 5.953125 -7.453125 C 6.359375 -7.054688 6.65625 -6.65625 6.84375 -6.25 C 7.0625 -5.757812 7.171875 -4.960938 7.171875 -3.859375 C 7.171875 -3.390625 7.078125 -2.847656 6.890625 -2.234375 C 6.710938 -1.628906 6.472656 -1.171875 6.171875 -0.859375 C 5.867188 -0.546875 5.488281 -0.3125 5.03125 -0.15625 C 4.820312 -0.09375 4.613281 -0.0625 4.40625 -0.0625 Z M 3.796875 -1.203125 L 4.3125 -1.140625 C 4.644531 -1.140625 4.929688 -1.285156 5.171875 -1.578125 C 5.273438 -1.691406 5.410156 -1.976562 5.578125 -2.4375 C 5.753906 -2.90625 5.84375 -3.332031 5.84375 -3.71875 C 5.84375 -4.863281 5.597656 -5.753906 5.109375 -6.390625 C 4.835938 -6.722656 4.585938 -6.910156 4.359375 -6.953125 C 4.140625 -7.003906 3.914062 -7.03125 3.6875 -7.03125 C 3.457031 -7.03125 3.203125 -6.9375 2.921875 -6.75 C 2.648438 -6.570312 2.40625 -6.195312 2.1875 -5.625 C 1.976562 -5.050781 1.875 -4.578125 1.875 -4.203125 C 1.875 -2.984375 2.15625 -2.113281 2.71875 -1.59375 C 2.914062 -1.40625 3.273438 -1.273438 3.796875 -1.203125 Z M 3.796875 -1.203125 "/></g></g></g><g fill="#ffffff" fill-opacity="1"><g transform="translate(480.756668, 340.07114)"><g><path d="M 11.265625 -4.265625 L 11.21875 -2.34375 C 11.25 -2.226562 11.332031 -2.125 11.46875 -2.03125 C 11.601562 -1.9375 11.6875 -1.851562 11.71875 -1.78125 C 11.894531 -1.4375 11.984375 -1.1875 11.984375 -1.03125 C 11.984375 -0.582031 11.832031 -0.28125 11.53125 -0.125 C 11.269531 -0.113281 11.003906 -0.109375 10.734375 -0.109375 C 10.460938 -0.109375 9.976562 -0.113281 9.28125 -0.125 C 9.15625 -0.175781 9.050781 -0.304688 8.96875 -0.515625 C 8.894531 -0.734375 8.859375 -0.90625 8.859375 -1.03125 C 8.859375 -1.15625 8.875 -1.273438 8.90625 -1.390625 C 8.945312 -1.515625 9.0625 -1.660156 9.25 -1.828125 C 9.445312 -1.992188 9.546875 -2.085938 9.546875 -2.109375 L 9.546875 -3.8125 C 9.546875 -4.476562 9.539062 -5.191406 9.53125 -5.953125 C 9.46875 -6.191406 9.304688 -6.398438 9.046875 -6.578125 C 8.796875 -6.765625 8.515625 -6.863281 8.203125 -6.875 L 8.125 -6.875 C 7.925781 -6.875 7.691406 -6.796875 7.421875 -6.640625 C 7.097656 -6.453125 6.878906 -6.226562 6.765625 -5.96875 C 6.796875 -5.257812 6.8125 -4.6875 6.8125 -4.25 L 6.796875 -2.578125 L 6.796875 -2.03125 C 6.847656 -1.957031 6.960938 -1.910156 7.140625 -1.890625 C 7.316406 -1.878906 7.429688 -1.84375 7.484375 -1.78125 C 7.671875 -1.5625 7.765625 -1.351562 7.765625 -1.15625 C 7.765625 -0.96875 7.738281 -0.773438 7.6875 -0.578125 C 7.632812 -0.378906 7.503906 -0.226562 7.296875 -0.125 C 7.035156 -0.113281 6.703125 -0.109375 6.296875 -0.109375 C 5.890625 -0.109375 5.347656 -0.113281 4.671875 -0.125 C 4.546875 -0.175781 4.4375 -0.320312 4.34375 -0.5625 C 4.25 -0.800781 4.203125 -0.972656 4.203125 -1.078125 C 4.203125 -1.179688 4.226562 -1.289062 4.28125 -1.40625 C 4.34375 -1.519531 4.492188 -1.617188 4.734375 -1.703125 C 4.984375 -1.796875 5.140625 -1.90625 5.203125 -2.03125 L 5.15625 -3.875 C 5.15625 -4.226562 5.171875 -4.828125 5.203125 -5.671875 C 5.160156 -5.929688 5.085938 -6.125 4.984375 -6.25 C 4.816406 -6.4375 4.601562 -6.546875 4.34375 -6.578125 L 4.203125 -6.578125 C 3.929688 -6.578125 3.640625 -6.484375 3.328125 -6.296875 C 3.015625 -6.117188 2.800781 -5.898438 2.6875 -5.640625 C 2.675781 -5.378906 2.671875 -5.03125 2.671875 -4.59375 L 2.6875 -2.03125 C 2.726562 -1.96875 2.804688 -1.910156 2.921875 -1.859375 C 3.046875 -1.804688 3.128906 -1.75 3.171875 -1.6875 C 3.335938 -1.425781 3.421875 -1.222656 3.421875 -1.078125 C 3.421875 -0.941406 3.394531 -0.785156 3.34375 -0.609375 C 3.289062 -0.441406 3.222656 -0.332031 3.140625 -0.28125 C 3.066406 -0.226562 2.957031 -0.1875 2.8125 -0.15625 L 0.65625 -0.15625 C 0.425781 -0.21875 0.25 -0.332031 0.125 -0.5 C 0.0078125 -0.664062 -0.046875 -0.804688 -0.046875 -0.921875 C -0.046875 -1.242188 0.0859375 -1.476562 0.359375 -1.625 C 0.640625 -1.769531 0.816406 -1.90625 0.890625 -2.03125 L 0.890625 -3.984375 C 0.890625 -4.804688 0.882812 -5.671875 0.875 -6.578125 C 0.800781 -6.691406 0.640625 -6.769531 0.390625 -6.8125 C 0.148438 -6.851562 0.0195312 -6.9375 0 -7.0625 C 0.695312 -7.6875 1.25 -8.203125 1.65625 -8.609375 C 1.757812 -8.609375 1.835938 -8.597656 1.890625 -8.578125 C 1.953125 -8.566406 1.992188 -8.554688 2.015625 -8.546875 C 2.035156 -8.546875 2.0625 -8.535156 2.09375 -8.515625 C 2.132812 -8.492188 2.160156 -8.472656 2.171875 -8.453125 C 2.234375 -8.390625 2.289062 -8.34375 2.34375 -8.3125 C 2.394531 -8.28125 2.453125 -8.195312 2.515625 -8.0625 C 2.585938 -7.894531 2.710938 -7.8125 2.890625 -7.8125 C 3.066406 -7.8125 3.273438 -7.875 3.515625 -8 C 3.765625 -8.132812 3.925781 -8.210938 4 -8.234375 C 4.082031 -8.253906 4.164062 -8.289062 4.25 -8.34375 C 4.445312 -8.414062 4.617188 -8.445312 4.765625 -8.4375 C 4.910156 -8.4375 5.09375 -8.378906 5.3125 -8.265625 C 5.539062 -8.148438 5.6875 -8.082031 5.75 -8.0625 C 5.820312 -8.039062 5.910156 -8.007812 6.015625 -7.96875 C 6.222656 -7.894531 6.398438 -7.859375 6.546875 -7.859375 L 6.640625 -7.859375 C 6.742188 -7.867188 6.863281 -7.921875 7 -8.015625 C 7.34375 -8.253906 7.796875 -8.375 8.359375 -8.375 C 9.023438 -8.375 9.625 -8.207031 10.15625 -7.875 C 10.675781 -7.519531 11.03125 -7.097656 11.21875 -6.609375 C 11.25 -5.410156 11.265625 -4.628906 11.265625 -4.265625 Z M 11.265625 -4.265625 "/></g></g></g><g fill="#ffffff" fill-opacity="1"><g transform="translate(493.692336, 340.07114)"><g/></g></g><g fill="#ffffff" fill-opacity="1"><g transform="translate(502.569803, 340.07114)"><g><path d="M 3.53125 -9.890625 C 3.53125 -9.660156 3.445312 -9.488281 3.28125 -9.375 C 3.113281 -9.269531 2.921875 -9.21875 2.703125 -9.21875 L 2.65625 -9.21875 C 2.445312 -9.238281 2.300781 -9.289062 2.21875 -9.375 C 2.113281 -9.488281 2.0625 -9.640625 2.0625 -9.828125 C 2.0625 -10.023438 2.117188 -10.195312 2.234375 -10.34375 C 2.347656 -10.488281 2.5 -10.566406 2.6875 -10.578125 C 2.695312 -10.578125 2.710938 -10.578125 2.734375 -10.578125 C 2.765625 -10.585938 2.785156 -10.59375 2.796875 -10.59375 C 2.984375 -10.59375 3.148438 -10.523438 3.296875 -10.390625 C 3.453125 -10.265625 3.53125 -10.097656 3.53125 -9.890625 Z M 0.46875 -0.953125 C 0.46875 -1.253906 0.578125 -1.492188 0.796875 -1.671875 C 1.015625 -1.859375 1.238281 -1.953125 1.46875 -1.953125 C 1.632812 -1.953125 1.757812 -1.921875 1.84375 -1.859375 L 1.84375 -2.40625 C 1.84375 -2.601562 1.84375 -2.804688 1.84375 -3.015625 C 1.851562 -3.234375 1.859375 -3.398438 1.859375 -3.515625 C 1.859375 -3.828125 1.820312 -4.679688 1.75 -6.078125 C 1.707031 -6.179688 1.644531 -6.269531 1.5625 -6.34375 C 1.476562 -6.414062 1.335938 -6.53125 1.140625 -6.6875 C 0.953125 -6.84375 0.753906 -7.039062 0.546875 -7.28125 C 0.460938 -7.457031 0.421875 -7.578125 0.421875 -7.640625 C 0.421875 -7.734375 0.507812 -7.835938 0.6875 -7.953125 C 0.84375 -8.046875 0.972656 -8.113281 1.078125 -8.15625 C 1.179688 -8.195312 1.289062 -8.234375 1.40625 -8.265625 C 1.53125 -8.304688 1.628906 -8.335938 1.703125 -8.359375 C 1.753906 -8.367188 1.84375 -8.398438 1.96875 -8.453125 C 2.101562 -8.515625 2.226562 -8.5625 2.34375 -8.59375 C 2.46875 -8.625 2.597656 -8.640625 2.734375 -8.640625 C 2.753906 -8.640625 2.785156 -8.632812 2.828125 -8.625 C 2.878906 -8.625 2.914062 -8.625 2.9375 -8.625 C 3.507812 -8.539062 3.90625 -8.3125 4.125 -7.9375 C 4.3125 -7.59375 4.40625 -7.257812 4.40625 -6.9375 C 4.40625 -6.726562 4.363281 -6.445312 4.28125 -6.09375 C 4.195312 -5.75 4.15625 -5.503906 4.15625 -5.359375 C 4.15625 -4.953125 4.140625 -4.441406 4.109375 -3.828125 C 4.078125 -3.222656 4.0625 -2.59375 4.0625 -1.9375 C 4.113281 -2 4.191406 -2.03125 4.296875 -2.03125 C 4.515625 -2.03125 4.71875 -1.847656 4.90625 -1.484375 C 4.988281 -1.304688 5.03125 -1.132812 5.03125 -0.96875 C 5.03125 -0.6875 4.925781 -0.460938 4.71875 -0.296875 C 4.625 -0.222656 4.25 -0.1875 3.59375 -0.1875 L 1.046875 -0.1875 C 0.878906 -0.1875 0.738281 -0.265625 0.625 -0.421875 C 0.519531 -0.578125 0.46875 -0.753906 0.46875 -0.953125 Z M 0.46875 -0.953125 "/></g></g></g><g fill="#ffffff" fill-opacity="1"><g transform="translate(508.705235, 340.07114)"><g><path d="M 4.890625 -10.640625 C 4.691406 -10.640625 4.59375 -10.789062 4.59375 -11.09375 C 4.59375 -11.40625 4.707031 -11.734375 4.9375 -12.078125 C 5.175781 -12.429688 5.421875 -12.695312 5.671875 -12.875 C 5.804688 -12.957031 5.988281 -13 6.21875 -13 C 6.5625 -13 6.890625 -12.894531 7.203125 -12.6875 C 7.523438 -12.488281 7.6875 -12.269531 7.6875 -12.03125 C 7.6875 -11.9375 7.664062 -11.863281 7.625 -11.8125 C 7.726562 -9.9375 7.78125 -7.476562 7.78125 -4.4375 L 7.78125 -2.46875 C 7.820312 -2.488281 7.847656 -2.5 7.859375 -2.5 C 7.960938 -2.5 8.066406 -2.40625 8.171875 -2.21875 C 8.285156 -2.039062 8.34375 -1.859375 8.34375 -1.671875 L 8.34375 -1.484375 C 8.34375 -0.898438 8.140625 -0.523438 7.734375 -0.359375 C 7.628906 -0.304688 7.5 -0.28125 7.34375 -0.28125 C 7.269531 -0.28125 7.191406 -0.285156 7.109375 -0.296875 C 7.035156 -0.304688 6.976562 -0.320312 6.9375 -0.34375 L 6.875 -0.359375 L 6.8125 -0.359375 C 6.644531 -0.359375 6.476562 -0.425781 6.3125 -0.5625 C 6.15625 -0.707031 6.03125 -0.851562 5.9375 -1 C 5.84375 -1.15625 5.789062 -1.234375 5.78125 -1.234375 C 5.769531 -1.234375 5.765625 -1.222656 5.765625 -1.203125 C 5.753906 -0.972656 5.46875 -0.765625 4.90625 -0.578125 C 4.34375 -0.390625 3.765625 -0.296875 3.171875 -0.296875 C 2.984375 -0.296875 2.84375 -0.300781 2.75 -0.3125 C 2.5625 -0.332031 2.382812 -0.394531 2.21875 -0.5 C 2.0625 -0.601562 1.941406 -0.695312 1.859375 -0.78125 C 1.785156 -0.875 1.695312 -1 1.59375 -1.15625 C 1.488281 -1.3125 1.421875 -1.410156 1.390625 -1.453125 C 0.703125 -2.285156 0.359375 -3.222656 0.359375 -4.265625 L 0.359375 -4.40625 C 0.410156 -6.5625 1.191406 -8.144531 2.703125 -9.15625 C 3.140625 -9.457031 3.59375 -9.609375 4.0625 -9.609375 C 4.195312 -9.609375 4.335938 -9.59375 4.484375 -9.5625 C 4.640625 -9.53125 4.765625 -9.5 4.859375 -9.46875 C 4.953125 -9.445312 5.078125 -9.410156 5.234375 -9.359375 C 5.390625 -9.304688 5.503906 -9.269531 5.578125 -9.25 C 5.578125 -9.332031 5.570312 -9.460938 5.5625 -9.640625 C 5.550781 -9.816406 5.546875 -9.957031 5.546875 -10.0625 C 5.546875 -10.226562 5.554688 -10.3125 5.578125 -10.3125 C 5.585938 -10.320312 5.601562 -10.539062 5.625 -10.96875 C 5.625 -10.976562 5.632812 -11.015625 5.65625 -11.078125 L 5.65625 -11.125 C 5.382812 -10.800781 5.128906 -10.640625 4.890625 -10.640625 Z M 4.625 -7.46875 L 4.59375 -7.46875 C 4.457031 -7.46875 4.285156 -7.40625 4.078125 -7.28125 C 3.867188 -7.15625 3.695312 -7 3.5625 -6.8125 C 3.238281 -6.414062 3.007812 -6.097656 2.875 -5.859375 C 2.75 -5.628906 2.660156 -5.332031 2.609375 -4.96875 C 2.578125 -4.78125 2.5625 -4.617188 2.5625 -4.484375 C 2.5625 -4.191406 2.660156 -3.894531 2.859375 -3.59375 C 3.003906 -3.351562 3.164062 -3.171875 3.34375 -3.046875 C 3.519531 -2.929688 3.789062 -2.804688 4.15625 -2.671875 C 4.34375 -2.585938 4.503906 -2.546875 4.640625 -2.546875 C 4.785156 -2.546875 4.898438 -2.585938 4.984375 -2.671875 C 5.078125 -2.765625 5.210938 -2.945312 5.390625 -3.21875 C 5.597656 -3.570312 5.738281 -3.898438 5.8125 -4.203125 C 5.894531 -4.503906 5.9375 -4.910156 5.9375 -5.421875 C 5.9375 -5.890625 5.804688 -6.328125 5.546875 -6.734375 C 5.296875 -7.140625 4.988281 -7.382812 4.625 -7.46875 Z M 4.625 -7.46875 "/></g></g></g><g fill="#ffffff" fill-opacity="1"><g transform="translate(518.155357, 340.07114)"><g><path d="M 3.0625 -6.453125 C 3.0625 -6.453125 3.09375 -6.453125 3.15625 -6.453125 C 3.550781 -6.453125 4.019531 -6.410156 4.5625 -6.328125 C 4.5625 -6.335938 4.554688 -6.351562 4.546875 -6.375 C 4.546875 -6.394531 4.546875 -6.410156 4.546875 -6.421875 C 4.546875 -6.535156 4.585938 -6.703125 4.671875 -6.921875 C 4.765625 -7.140625 4.8125 -7.253906 4.8125 -7.265625 L 4.8125 -7.28125 C 4.738281 -7.332031 4.613281 -7.359375 4.4375 -7.359375 C 4.070312 -7.359375 3.742188 -7.265625 3.453125 -7.078125 C 3.390625 -7.023438 3.257812 -6.816406 3.0625 -6.453125 Z M 2.46875 -5 C 2.46875 -4.988281 2.488281 -4.925781 2.53125 -4.8125 C 2.582031 -4.707031 2.640625 -4.566406 2.703125 -4.390625 C 2.765625 -4.210938 2.8125 -4.0625 2.84375 -3.9375 C 2.925781 -3.320312 3.109375 -2.898438 3.390625 -2.671875 C 3.472656 -2.578125 3.742188 -2.507812 4.203125 -2.46875 C 4.296875 -2.445312 4.40625 -2.429688 4.53125 -2.421875 C 4.65625 -2.410156 4.734375 -2.40625 4.765625 -2.40625 C 4.828125 -2.40625 4.875 -2.40625 4.90625 -2.40625 C 4.9375 -2.414062 4.96875 -2.441406 5 -2.484375 C 5.03125 -2.523438 5.050781 -2.554688 5.0625 -2.578125 C 5.070312 -2.609375 5.085938 -2.671875 5.109375 -2.765625 C 5.140625 -2.867188 5.171875 -2.957031 5.203125 -3.03125 C 5.335938 -3.40625 5.597656 -3.59375 5.984375 -3.59375 C 6.222656 -3.59375 6.4375 -3.507812 6.625 -3.34375 C 6.820312 -3.175781 6.921875 -2.96875 6.921875 -2.71875 L 6.921875 -2.671875 C 6.898438 -2.222656 6.867188 -1.921875 6.828125 -1.765625 C 6.785156 -1.609375 6.703125 -1.410156 6.578125 -1.171875 C 6.210938 -0.546875 5.648438 -0.234375 4.890625 -0.234375 C 4.785156 -0.234375 4.664062 -0.238281 4.53125 -0.25 C 4.40625 -0.269531 4.335938 -0.28125 4.328125 -0.28125 C 4.316406 -0.28125 4.265625 -0.273438 4.171875 -0.265625 C 4.078125 -0.253906 3.984375 -0.25 3.890625 -0.25 C 3.015625 -0.25 2.273438 -0.535156 1.671875 -1.109375 C 0.753906 -1.972656 0.296875 -3.078125 0.296875 -4.421875 C 0.296875 -4.898438 0.367188 -5.394531 0.515625 -5.90625 C 0.679688 -6.488281 0.867188 -6.960938 1.078125 -7.328125 C 1.285156 -7.703125 1.59375 -8.050781 2 -8.375 C 2.6875 -8.894531 3.4375 -9.15625 4.25 -9.15625 C 4.457031 -9.15625 4.617188 -9.148438 4.734375 -9.140625 C 5.003906 -9.117188 5.226562 -9.082031 5.40625 -9.03125 C 5.582031 -8.988281 5.78125 -8.890625 6 -8.734375 C 6.21875 -8.585938 6.390625 -8.390625 6.515625 -8.140625 C 6.773438 -7.609375 6.90625 -7.144531 6.90625 -6.75 C 6.90625 -6.425781 6.835938 -6.082031 6.703125 -5.71875 C 6.515625 -5.226562 6.226562 -4.972656 5.84375 -4.953125 L 5.5 -4.9375 C 5.257812 -4.925781 4.96875 -4.914062 4.625 -4.90625 C 4.28125 -4.894531 3.960938 -4.890625 3.671875 -4.890625 C 2.953125 -4.890625 2.550781 -4.925781 2.46875 -5 Z M 2.46875 -5 "/></g></g></g><g fill="#ffffff" fill-opacity="1"><g transform="translate(526.238597, 340.07114)"><g><path d="M 0.3125 -1.625 C 0.3125 -1.914062 0.40625 -2.179688 0.59375 -2.421875 C 0.78125 -2.671875 0.953125 -2.796875 1.109375 -2.796875 C 1.148438 -2.796875 1.191406 -2.78125 1.234375 -2.75 C 1.222656 -3.539062 1.21875 -4.984375 1.21875 -7.078125 C 1.175781 -7.003906 1.113281 -6.96875 1.03125 -6.96875 C 0.894531 -6.96875 0.75 -7.03125 0.59375 -7.15625 C 0.445312 -7.289062 0.363281 -7.445312 0.34375 -7.625 L 0.34375 -7.71875 C 0.34375 -7.78125 0.351562 -7.832031 0.375 -7.875 C 0.394531 -7.914062 0.445312 -7.972656 0.53125 -8.046875 C 0.625 -8.128906 0.722656 -8.21875 0.828125 -8.3125 C 0.929688 -8.40625 1.101562 -8.5625 1.34375 -8.78125 C 1.582031 -9.007812 1.84375 -9.257812 2.125 -9.53125 C 2.207031 -9.613281 2.3125 -9.65625 2.4375 -9.65625 C 2.71875 -9.644531 3.023438 -9.519531 3.359375 -9.28125 C 3.535156 -9.144531 3.613281 -8.988281 3.59375 -8.8125 C 3.59375 -8.84375 3.597656 -8.863281 3.609375 -8.875 C 3.648438 -8.9375 3.695312 -8.984375 3.75 -9.015625 C 3.8125 -9.046875 3.9375 -9.078125 4.125 -9.109375 C 4.320312 -9.148438 4.503906 -9.203125 4.671875 -9.265625 C 4.703125 -9.273438 4.753906 -9.300781 4.828125 -9.34375 C 4.910156 -9.394531 5.003906 -9.429688 5.109375 -9.453125 C 5.222656 -9.484375 5.347656 -9.5 5.484375 -9.5 L 5.53125 -9.5 C 5.707031 -9.5 5.863281 -9.472656 6 -9.421875 C 6.132812 -9.378906 6.273438 -9.316406 6.421875 -9.234375 C 6.566406 -9.148438 6.664062 -9.097656 6.71875 -9.078125 C 6.738281 -9.066406 6.796875 -9.046875 6.890625 -9.015625 C 6.984375 -8.992188 7.066406 -8.96875 7.140625 -8.9375 C 7.210938 -8.914062 7.296875 -8.863281 7.390625 -8.78125 C 7.492188 -8.707031 7.585938 -8.617188 7.671875 -8.515625 C 7.929688 -8.109375 8.0625 -7.648438 8.0625 -7.140625 C 8.0625 -6.878906 8.03125 -6.671875 7.96875 -6.515625 C 8 -5.929688 8.015625 -5.335938 8.015625 -4.734375 C 8.015625 -4.535156 8.007812 -4.304688 8 -4.046875 C 7.988281 -3.796875 7.984375 -3.578125 7.984375 -3.390625 C 7.984375 -3.335938 7.984375 -3.238281 7.984375 -3.09375 C 7.992188 -2.957031 8 -2.84375 8 -2.75 C 8.03125 -2.957031 8.085938 -3.0625 8.171875 -3.0625 C 8.203125 -3.0625 8.273438 -3.007812 8.390625 -2.90625 C 8.515625 -2.800781 8.632812 -2.628906 8.75 -2.390625 C 8.875 -2.160156 8.9375 -1.914062 8.9375 -1.65625 C 8.9375 -1.25 8.832031 -0.921875 8.625 -0.671875 C 8.425781 -0.429688 8.242188 -0.3125 8.078125 -0.3125 C 7.816406 -0.300781 7.53125 -0.296875 7.21875 -0.296875 C 6.695312 -0.296875 6.101562 -0.300781 5.4375 -0.3125 C 5.195312 -0.3125 4.992188 -0.476562 4.828125 -0.8125 C 4.660156 -1.15625 4.578125 -1.445312 4.578125 -1.6875 C 4.578125 -1.9375 4.660156 -2.191406 4.828125 -2.453125 C 5.003906 -2.710938 5.175781 -2.84375 5.34375 -2.84375 C 5.414062 -2.84375 5.476562 -2.8125 5.53125 -2.75 C 5.53125 -3.0625 5.523438 -3.347656 5.515625 -3.609375 C 5.515625 -3.867188 5.507812 -4.0625 5.5 -4.1875 C 5.5 -4.320312 5.5 -4.425781 5.5 -4.5 C 5.5 -4.582031 5.5 -4.757812 5.5 -5.03125 C 5.507812 -5.3125 5.519531 -5.71875 5.53125 -6.25 C 5.5 -6.5 5.421875 -6.65625 5.296875 -6.71875 C 5.242188 -6.738281 5.164062 -6.753906 5.0625 -6.765625 C 5.039062 -6.765625 5.015625 -6.765625 4.984375 -6.765625 C 4.953125 -6.773438 4.929688 -6.78125 4.921875 -6.78125 C 4.753906 -6.78125 4.550781 -6.703125 4.3125 -6.546875 C 4.070312 -6.398438 3.925781 -6.269531 3.875 -6.15625 C 3.863281 -5.707031 3.859375 -5.273438 3.859375 -4.859375 C 3.859375 -4.753906 3.859375 -4.515625 3.859375 -4.140625 C 3.867188 -3.773438 3.875 -3.316406 3.875 -2.765625 C 3.925781 -2.910156 3.992188 -2.921875 4.078125 -2.796875 C 4.097656 -2.773438 4.125 -2.742188 4.15625 -2.703125 C 4.195312 -2.628906 4.226562 -2.578125 4.25 -2.546875 C 4.457031 -2.253906 4.5625 -1.953125 4.5625 -1.640625 C 4.5625 -1.484375 4.539062 -1.34375 4.5 -1.21875 C 4.363281 -0.75 4.09375 -0.460938 3.6875 -0.359375 C 3.664062 -0.347656 3.632812 -0.34375 3.59375 -0.34375 L 1.421875 -0.34375 C 1.191406 -0.34375 0.945312 -0.460938 0.6875 -0.703125 C 0.4375 -0.941406 0.3125 -1.25 0.3125 -1.625 Z M 0.3125 -1.625 "/></g></g></g><g fill="#ffffff" fill-opacity="1"><g transform="translate(536.286728, 340.07114)"><g><path d="M 0.96875 -6.34375 C 0.4375 -6.695312 0.171875 -7.054688 0.171875 -7.421875 C 0.171875 -7.535156 0.191406 -7.65625 0.234375 -7.78125 C 0.273438 -7.914062 0.3125 -8.015625 0.34375 -8.078125 C 0.382812 -8.148438 0.414062 -8.195312 0.4375 -8.21875 C 0.75 -8.550781 0.992188 -8.804688 1.171875 -8.984375 C 1.347656 -9.171875 1.445312 -9.269531 1.46875 -9.28125 C 1.488281 -9.300781 1.515625 -9.328125 1.546875 -9.359375 C 1.585938 -9.398438 1.632812 -9.445312 1.6875 -9.5 C 1.738281 -9.5625 1.863281 -9.710938 2.0625 -9.953125 C 2.15625 -10.066406 2.300781 -10.125 2.5 -10.125 C 2.863281 -10.125 3.132812 -9.960938 3.3125 -9.640625 C 3.457031 -9.398438 3.53125 -9.179688 3.53125 -8.984375 C 3.53125 -8.921875 3.515625 -8.820312 3.484375 -8.6875 L 3.625 -8.6875 C 3.6875 -8.6875 4.203125 -8.65625 5.171875 -8.59375 C 5.347656 -8.570312 5.5 -8.457031 5.625 -8.25 C 5.757812 -8.039062 5.828125 -7.800781 5.828125 -7.53125 C 5.828125 -7.195312 5.707031 -6.890625 5.46875 -6.609375 C 5.351562 -6.503906 5.117188 -6.453125 4.765625 -6.453125 C 4.691406 -6.453125 4.535156 -6.457031 4.296875 -6.46875 C 4.066406 -6.476562 3.867188 -6.484375 3.703125 -6.484375 L 3.34375 -6.484375 L 3.34375 -5.625 C 3.34375 -5.476562 3.335938 -5.203125 3.328125 -4.796875 C 3.328125 -4.398438 3.320312 -3.878906 3.3125 -3.234375 C 3.34375 -3.085938 3.367188 -2.9375 3.390625 -2.78125 C 3.421875 -2.625 3.441406 -2.515625 3.453125 -2.453125 C 3.460938 -2.398438 3.472656 -2.34375 3.484375 -2.28125 C 3.503906 -2.226562 3.523438 -2.191406 3.546875 -2.171875 C 3.566406 -2.148438 3.597656 -2.132812 3.640625 -2.125 L 3.6875 -2.15625 C 3.726562 -2.175781 3.773438 -2.203125 3.828125 -2.234375 C 3.878906 -2.273438 3.941406 -2.304688 4.015625 -2.328125 C 4.097656 -2.359375 4.1875 -2.382812 4.28125 -2.40625 C 4.375 -2.425781 4.46875 -2.4375 4.5625 -2.4375 C 4.800781 -2.4375 4.988281 -2.378906 5.125 -2.265625 C 5.269531 -2.160156 5.34375 -2.019531 5.34375 -1.84375 C 5.34375 -1.300781 5 -0.796875 4.3125 -0.328125 C 3.96875 -0.210938 3.632812 -0.15625 3.3125 -0.15625 C 2.300781 -0.15625 1.546875 -0.566406 1.046875 -1.390625 C 0.992188 -1.441406 0.96875 -1.515625 0.96875 -1.609375 Z M 0.96875 -6.34375 "/></g></g></g><g fill="#ffffff" fill-opacity="1"><g transform="translate(543.088515, 340.07114)"><g><path d="M 3.53125 -9.890625 C 3.53125 -9.660156 3.445312 -9.488281 3.28125 -9.375 C 3.113281 -9.269531 2.921875 -9.21875 2.703125 -9.21875 L 2.65625 -9.21875 C 2.445312 -9.238281 2.300781 -9.289062 2.21875 -9.375 C 2.113281 -9.488281 2.0625 -9.640625 2.0625 -9.828125 C 2.0625 -10.023438 2.117188 -10.195312 2.234375 -10.34375 C 2.347656 -10.488281 2.5 -10.566406 2.6875 -10.578125 C 2.695312 -10.578125 2.710938 -10.578125 2.734375 -10.578125 C 2.765625 -10.585938 2.785156 -10.59375 2.796875 -10.59375 C 2.984375 -10.59375 3.148438 -10.523438 3.296875 -10.390625 C 3.453125 -10.265625 3.53125 -10.097656 3.53125 -9.890625 Z M 0.46875 -0.953125 C 0.46875 -1.253906 0.578125 -1.492188 0.796875 -1.671875 C 1.015625 -1.859375 1.238281 -1.953125 1.46875 -1.953125 C 1.632812 -1.953125 1.757812 -1.921875 1.84375 -1.859375 L 1.84375 -2.40625 C 1.84375 -2.601562 1.84375 -2.804688 1.84375 -3.015625 C 1.851562 -3.234375 1.859375 -3.398438 1.859375 -3.515625 C 1.859375 -3.828125 1.820312 -4.679688 1.75 -6.078125 C 1.707031 -6.179688 1.644531 -6.269531 1.5625 -6.34375 C 1.476562 -6.414062 1.335938 -6.53125 1.140625 -6.6875 C 0.953125 -6.84375 0.753906 -7.039062 0.546875 -7.28125 C 0.460938 -7.457031 0.421875 -7.578125 0.421875 -7.640625 C 0.421875 -7.734375 0.507812 -7.835938 0.6875 -7.953125 C 0.84375 -8.046875 0.972656 -8.113281 1.078125 -8.15625 C 1.179688 -8.195312 1.289062 -8.234375 1.40625 -8.265625 C 1.53125 -8.304688 1.628906 -8.335938 1.703125 -8.359375 C 1.753906 -8.367188 1.84375 -8.398438 1.96875 -8.453125 C 2.101562 -8.515625 2.226562 -8.5625 2.34375 -8.59375 C 2.46875 -8.625 2.597656 -8.640625 2.734375 -8.640625 C 2.753906 -8.640625 2.785156 -8.632812 2.828125 -8.625 C 2.878906 -8.625 2.914062 -8.625 2.9375 -8.625 C 3.507812 -8.539062 3.90625 -8.3125 4.125 -7.9375 C 4.3125 -7.59375 4.40625 -7.257812 4.40625 -6.9375 C 4.40625 -6.726562 4.363281 -6.445312 4.28125 -6.09375 C 4.195312 -5.75 4.15625 -5.503906 4.15625 -5.359375 C 4.15625 -4.953125 4.140625 -4.441406 4.109375 -3.828125 C 4.078125 -3.222656 4.0625 -2.59375 4.0625 -1.9375 C 4.113281 -2 4.191406 -2.03125 4.296875 -2.03125 C 4.515625 -2.03125 4.71875 -1.847656 4.90625 -1.484375 C 4.988281 -1.304688 5.03125 -1.132812 5.03125 -0.96875 C 5.03125 -0.6875 4.925781 -0.460938 4.71875 -0.296875 C 4.625 -0.222656 4.25 -0.1875 3.59375 -0.1875 L 1.046875 -0.1875 C 0.878906 -0.1875 0.738281 -0.265625 0.625 -0.421875 C 0.519531 -0.578125 0.46875 -0.753906 0.46875 -0.953125 Z M 0.46875 -0.953125 "/></g></g></g><g fill="#ffffff" fill-opacity="1"><g transform="translate(549.223947, 340.07114)"><g><path d="M 0.96875 -6.34375 C 0.4375 -6.695312 0.171875 -7.054688 0.171875 -7.421875 C 0.171875 -7.535156 0.191406 -7.65625 0.234375 -7.78125 C 0.273438 -7.914062 0.3125 -8.015625 0.34375 -8.078125 C 0.382812 -8.148438 0.414062 -8.195312 0.4375 -8.21875 C 0.75 -8.550781 0.992188 -8.804688 1.171875 -8.984375 C 1.347656 -9.171875 1.445312 -9.269531 1.46875 -9.28125 C 1.488281 -9.300781 1.515625 -9.328125 1.546875 -9.359375 C 1.585938 -9.398438 1.632812 -9.445312 1.6875 -9.5 C 1.738281 -9.5625 1.863281 -9.710938 2.0625 -9.953125 C 2.15625 -10.066406 2.300781 -10.125 2.5 -10.125 C 2.863281 -10.125 3.132812 -9.960938 3.3125 -9.640625 C 3.457031 -9.398438 3.53125 -9.179688 3.53125 -8.984375 C 3.53125 -8.921875 3.515625 -8.820312 3.484375 -8.6875 L 3.625 -8.6875 C 3.6875 -8.6875 4.203125 -8.65625 5.171875 -8.59375 C 5.347656 -8.570312 5.5 -8.457031 5.625 -8.25 C 5.757812 -8.039062 5.828125 -7.800781 5.828125 -7.53125 C 5.828125 -7.195312 5.707031 -6.890625 5.46875 -6.609375 C 5.351562 -6.503906 5.117188 -6.453125 4.765625 -6.453125 C 4.691406 -6.453125 4.535156 -6.457031 4.296875 -6.46875 C 4.066406 -6.476562 3.867188 -6.484375 3.703125 -6.484375 L 3.34375 -6.484375 L 3.34375 -5.625 C 3.34375 -5.476562 3.335938 -5.203125 3.328125 -4.796875 C 3.328125 -4.398438 3.320312 -3.878906 3.3125 -3.234375 C 3.34375 -3.085938 3.367188 -2.9375 3.390625 -2.78125 C 3.421875 -2.625 3.441406 -2.515625 3.453125 -2.453125 C 3.460938 -2.398438 3.472656 -2.34375 3.484375 -2.28125 C 3.503906 -2.226562 3.523438 -2.191406 3.546875 -2.171875 C 3.566406 -2.148438 3.597656 -2.132812 3.640625 -2.125 L 3.6875 -2.15625 C 3.726562 -2.175781 3.773438 -2.203125 3.828125 -2.234375 C 3.878906 -2.273438 3.941406 -2.304688 4.015625 -2.328125 C 4.097656 -2.359375 4.1875 -2.382812 4.28125 -2.40625 C 4.375 -2.425781 4.46875 -2.4375 4.5625 -2.4375 C 4.800781 -2.4375 4.988281 -2.378906 5.125 -2.265625 C 5.269531 -2.160156 5.34375 -2.019531 5.34375 -1.84375 C 5.34375 -1.300781 5 -0.796875 4.3125 -0.328125 C 3.96875 -0.210938 3.632812 -0.15625 3.3125 -0.15625 C 2.300781 -0.15625 1.546875 -0.566406 1.046875 -1.390625 C 0.992188 -1.441406 0.96875 -1.515625 0.96875 -1.609375 Z M 0.96875 -6.34375 "/></g></g></g><g fill="#ffffff" fill-opacity="1"><g transform="translate(556.025733, 340.07114)"><g><path d="M 5.703125 -7.140625 C 5.554688 -7.140625 5.410156 -7.257812 5.265625 -7.5 C 5.128906 -7.738281 5.0625 -7.957031 5.0625 -8.15625 C 5.0625 -8.414062 5.144531 -8.648438 5.3125 -8.859375 C 5.425781 -8.984375 5.691406 -9.097656 6.109375 -9.203125 C 6.523438 -9.316406 6.953125 -9.375 7.390625 -9.375 C 7.859375 -9.375 8.238281 -9.296875 8.53125 -9.140625 C 8.644531 -9.085938 8.769531 -8.945312 8.90625 -8.71875 C 9.039062 -8.488281 9.109375 -8.242188 9.109375 -7.984375 C 9.109375 -7.785156 9.054688 -7.585938 8.953125 -7.390625 C 8.921875 -7.316406 8.875 -7.253906 8.8125 -7.203125 C 8.75 -7.160156 8.691406 -7.128906 8.640625 -7.109375 C 8.585938 -7.097656 8.53125 -7.082031 8.46875 -7.0625 C 8.40625 -7.050781 8.367188 -7.046875 8.359375 -7.046875 C 7.941406 -6.203125 7.484375 -5.226562 6.984375 -4.125 C 6.492188 -3.019531 5.988281 -1.957031 5.46875 -0.9375 C 4.957031 0.0703125 4.097656 1.6875 2.890625 3.90625 C 2.773438 4.125 2.46875 4.234375 1.96875 4.234375 C 1.53125 4.234375 1.007812 4.019531 0.40625 3.59375 C 0.1875 3.425781 0.078125 3.148438 0.078125 2.765625 C 0.078125 2.535156 0.132812 2.273438 0.25 1.984375 C 0.320312 1.429688 0.597656 1.046875 1.078125 0.828125 C 1.253906 0.734375 1.425781 0.6875 1.59375 0.6875 C 1.738281 0.6875 1.878906 0.722656 2.015625 0.796875 L 2.21875 0.921875 C 2.351562 0.878906 2.539062 0.617188 2.78125 0.140625 C 3.019531 -0.335938 3.140625 -0.800781 3.140625 -1.25 C 3.140625 -1.457031 3.101562 -1.722656 3.03125 -2.046875 C 2.945312 -2.472656 2.875 -2.835938 2.8125 -3.140625 C 2.75 -3.453125 2.675781 -3.742188 2.59375 -4.015625 C 2.519531 -4.285156 2.46875 -4.484375 2.4375 -4.609375 C 2.40625 -4.742188 2.332031 -4.929688 2.21875 -5.171875 C 2.113281 -5.410156 2.050781 -5.554688 2.03125 -5.609375 C 2.007812 -5.671875 1.925781 -5.847656 1.78125 -6.140625 C 1.632812 -6.429688 1.535156 -6.625 1.484375 -6.71875 C 1.210938 -6.75 0.941406 -6.894531 0.671875 -7.15625 C 0.410156 -7.414062 0.28125 -7.703125 0.28125 -8.015625 C 0.28125 -8.378906 0.40625 -8.625 0.65625 -8.75 C 1.1875 -9.09375 1.789062 -9.28125 2.46875 -9.3125 C 2.519531 -9.3125 2.5625 -9.3125 2.59375 -9.3125 C 3.007812 -9.34375 3.238281 -9.359375 3.28125 -9.359375 C 3.789062 -9.359375 4.191406 -9.195312 4.484375 -8.875 C 4.722656 -8.613281 4.84375 -8.320312 4.84375 -8 C 4.84375 -7.757812 4.757812 -7.535156 4.59375 -7.328125 C 4.425781 -7.128906 4.296875 -7.03125 4.203125 -7.03125 C 4.148438 -7.03125 4.050781 -7.097656 3.90625 -7.234375 C 3.945312 -7.128906 3.984375 -6.984375 4.015625 -6.796875 C 4.054688 -6.546875 4.097656 -6.320312 4.140625 -6.125 C 4.191406 -5.9375 4.234375 -5.785156 4.265625 -5.671875 C 4.296875 -5.554688 4.335938 -5.425781 4.390625 -5.28125 C 4.453125 -5.132812 4.488281 -5.039062 4.5 -5 C 4.507812 -4.96875 4.554688 -4.859375 4.640625 -4.671875 C 4.722656 -4.484375 4.773438 -4.363281 4.796875 -4.3125 C 4.929688 -4.3125 5 -4.335938 5 -4.390625 C 5.0625 -4.503906 5.148438 -4.65625 5.265625 -4.84375 C 5.378906 -5.039062 5.453125 -5.179688 5.484375 -5.265625 C 5.523438 -5.347656 5.578125 -5.46875 5.640625 -5.625 C 5.710938 -5.789062 5.757812 -5.96875 5.78125 -6.15625 C 5.8125 -6.351562 5.84375 -6.597656 5.875 -6.890625 L 5.90625 -7.3125 C 5.851562 -7.195312 5.785156 -7.140625 5.703125 -7.140625 Z M 5.703125 -7.140625 "/></g></g></g><g fill="#ffffff" fill-opacity="1"><g transform="translate(566.120573, 340.07114)"><g/></g></g><g fill="#ffffff" fill-opacity="1"><g transform="translate(575.006856, 340.07114)"><g><path d="M 0.078125 -2.71875 L 0.140625 -4.3125 C 0.253906 -4.4375 0.375 -4.5 0.5 -4.5 C 0.625 -4.5 0.800781 -4.441406 1.03125 -4.328125 C 1.320312 -4.148438 1.53125 -3.878906 1.65625 -3.515625 C 1.789062 -3.160156 1.914062 -2.796875 2.03125 -2.421875 C 2.15625 -2.046875 2.390625 -1.726562 2.734375 -1.46875 C 3.078125 -1.21875 3.519531 -1.09375 4.0625 -1.09375 C 4.6875 -1.09375 5.113281 -1.15625 5.34375 -1.28125 C 5.582031 -1.40625 5.742188 -1.546875 5.828125 -1.703125 C 6.035156 -2.046875 6.140625 -2.445312 6.140625 -2.90625 C 6.140625 -3.375 5.9375 -3.898438 5.53125 -4.484375 C 5.332031 -4.773438 5.085938 -4.992188 4.796875 -5.140625 C 4.515625 -5.285156 4.164062 -5.414062 3.75 -5.53125 C 3.34375 -5.65625 3.035156 -5.773438 2.828125 -5.890625 C 2.628906 -6.003906 2.394531 -6.109375 2.125 -6.203125 C 1.851562 -6.296875 1.625 -6.390625 1.4375 -6.484375 C 1.257812 -6.585938 1.109375 -6.742188 0.984375 -6.953125 C 0.546875 -7.648438 0.328125 -8.3125 0.328125 -8.9375 C 0.328125 -9.570312 0.421875 -10.148438 0.609375 -10.671875 C 0.804688 -11.191406 1.019531 -11.5625 1.25 -11.78125 C 1.488281 -12 1.800781 -12.1875 2.1875 -12.34375 C 2.582031 -12.5 2.9375 -12.578125 3.25 -12.578125 C 3.5625 -12.578125 4 -12.515625 4.5625 -12.390625 C 5.132812 -12.273438 5.519531 -12.203125 5.71875 -12.171875 C 5.925781 -12.148438 6.082031 -12.125 6.1875 -12.09375 C 6.476562 -12.03125 6.703125 -11.875 6.859375 -11.625 C 6.859375 -10.875 6.84375 -10.351562 6.8125 -10.0625 C 6.78125 -9.769531 6.695312 -9.269531 6.5625 -8.5625 C 6.445312 -8.539062 6.375 -8.53125 6.34375 -8.53125 C 5.925781 -8.53125 5.65625 -8.929688 5.53125 -9.734375 C 5.476562 -10.054688 5.378906 -10.390625 5.234375 -10.734375 C 5.097656 -11.078125 4.910156 -11.320312 4.671875 -11.46875 C 4.242188 -11.726562 3.894531 -11.859375 3.625 -11.859375 C 3.351562 -11.859375 3.117188 -11.78125 2.921875 -11.625 C 2.359375 -11.164062 2.078125 -10.5625 2.078125 -9.8125 C 2.078125 -9.289062 2.210938 -8.773438 2.484375 -8.265625 C 2.597656 -8.046875 2.75 -7.878906 2.9375 -7.765625 C 3.125 -7.660156 3.367188 -7.566406 3.671875 -7.484375 C 3.972656 -7.398438 4.222656 -7.3125 4.421875 -7.21875 C 4.617188 -7.125 4.898438 -7.03125 5.265625 -6.9375 C 5.628906 -6.84375 5.941406 -6.734375 6.203125 -6.609375 C 6.460938 -6.484375 6.679688 -6.289062 6.859375 -6.03125 C 7.273438 -5.40625 7.484375 -4.769531 7.484375 -4.125 C 7.484375 -3.488281 7.363281 -2.859375 7.125 -2.234375 C 6.894531 -1.617188 6.644531 -1.175781 6.375 -0.90625 C 6.113281 -0.632812 5.765625 -0.40625 5.328125 -0.21875 C 4.890625 -0.03125 4.457031 0.0625 4.03125 0.0625 C 3.613281 0.0625 3.015625 -0.0234375 2.234375 -0.203125 L 1.953125 -0.296875 C 1.867188 -0.316406 1.789062 -0.332031 1.71875 -0.34375 C 1.65625 -0.363281 1.585938 -0.394531 1.515625 -0.4375 C 1.441406 -0.476562 1.378906 -0.503906 1.328125 -0.515625 C 1.285156 -0.535156 1.210938 -0.578125 1.109375 -0.640625 C 1.015625 -0.710938 0.941406 -0.765625 0.890625 -0.796875 C 0.847656 -0.828125 0.742188 -0.890625 0.578125 -0.984375 L 0.1875 -1.265625 C 0.113281 -1.910156 0.078125 -2.394531 0.078125 -2.71875 Z M 0.078125 -2.71875 "/></g></g></g><g fill="#ffffff" fill-opacity="1"><g transform="translate(583.653934, 340.07114)"><g><path d="M 3.671875 -12.234375 L 3.671875 -1.515625 C 3.679688 -1.515625 3.765625 -1.472656 3.921875 -1.390625 C 4.085938 -1.316406 4.207031 -1.242188 4.28125 -1.171875 C 4.351562 -1.097656 4.425781 -1.003906 4.5 -0.890625 C 4.570312 -0.785156 4.609375 -0.703125 4.609375 -0.640625 C 4.609375 -0.578125 4.582031 -0.414062 4.53125 -0.15625 L 0.671875 -0.0625 C 0.554688 -0.226562 0.5 -0.378906 0.5 -0.515625 C 0.5 -0.660156 0.519531 -0.835938 0.5625 -1.046875 C 0.769531 -1.242188 1.003906 -1.367188 1.265625 -1.421875 C 1.523438 -1.472656 1.675781 -1.503906 1.71875 -1.515625 L 1.703125 -10.5625 L 1.390625 -10.5625 C 1.097656 -10.5625 0.875 -10.585938 0.71875 -10.640625 C 0.5625 -10.703125 0.40625 -10.84375 0.25 -11.0625 L 0.359375 -11.71875 C 0.441406 -11.945312 0.546875 -12.109375 0.671875 -12.203125 C 0.796875 -12.296875 0.941406 -12.394531 1.109375 -12.5 C 1.347656 -12.601562 1.632812 -12.65625 1.96875 -12.65625 C 2.3125 -12.65625 2.878906 -12.515625 3.671875 -12.234375 Z M 3.671875 -12.234375 "/></g></g></g><g fill="#ffffff" fill-opacity="1"><g transform="translate(589.242613, 340.07114)"><g><path d="M 4.40625 -0.0625 L 3.859375 -0.078125 C 3.710938 -0.0664062 3.523438 -0.0625 3.296875 -0.0625 C 2.648438 -0.0625 2.050781 -0.304688 1.5 -0.796875 C 0.90625 -1.378906 0.539062 -1.96875 0.40625 -2.5625 C 0.289062 -3.007812 0.234375 -3.429688 0.234375 -3.828125 C 0.234375 -4.234375 0.304688 -4.695312 0.453125 -5.21875 C 0.609375 -5.738281 0.773438 -6.160156 0.953125 -6.484375 C 1.140625 -6.816406 1.421875 -7.128906 1.796875 -7.421875 C 2.429688 -7.921875 3.164062 -8.171875 4 -8.171875 L 4.234375 -8.171875 C 4.535156 -8.160156 4.742188 -8.148438 4.859375 -8.140625 C 5.191406 -8.078125 5.554688 -7.847656 5.953125 -7.453125 C 6.359375 -7.054688 6.65625 -6.65625 6.84375 -6.25 C 7.0625 -5.757812 7.171875 -4.960938 7.171875 -3.859375 C 7.171875 -3.390625 7.078125 -2.847656 6.890625 -2.234375 C 6.710938 -1.628906 6.472656 -1.171875 6.171875 -0.859375 C 5.867188 -0.546875 5.488281 -0.3125 5.03125 -0.15625 C 4.820312 -0.09375 4.613281 -0.0625 4.40625 -0.0625 Z M 3.796875 -1.203125 L 4.3125 -1.140625 C 4.644531 -1.140625 4.929688 -1.285156 5.171875 -1.578125 C 5.273438 -1.691406 5.410156 -1.976562 5.578125 -2.4375 C 5.753906 -2.90625 5.84375 -3.332031 5.84375 -3.71875 C 5.84375 -4.863281 5.597656 -5.753906 5.109375 -6.390625 C 4.835938 -6.722656 4.585938 -6.910156 4.359375 -6.953125 C 4.140625 -7.003906 3.914062 -7.03125 3.6875 -7.03125 C 3.457031 -7.03125 3.203125 -6.9375 2.921875 -6.75 C 2.648438 -6.570312 2.40625 -6.195312 2.1875 -5.625 C 1.976562 -5.050781 1.875 -4.578125 1.875 -4.203125 C 1.875 -2.984375 2.15625 -2.113281 2.71875 -1.59375 C 2.914062 -1.40625 3.273438 -1.273438 3.796875 -1.203125 Z M 3.796875 -1.203125 "/></g></g></g><g fill="#ffffff" fill-opacity="1"><g transform="translate(597.411283, 340.07114)"><g><path d="M 4.90625 -6.75 C 4.90625 -7.039062 4.789062 -7.1875 4.5625 -7.1875 L 4.359375 -7.1875 C 4.242188 -7.1875 4.148438 -7.234375 4.078125 -7.328125 C 4.015625 -7.429688 3.984375 -7.578125 3.984375 -7.765625 C 3.984375 -7.953125 4.082031 -8.097656 4.28125 -8.203125 C 4.476562 -8.304688 4.6875 -8.359375 4.90625 -8.359375 C 5.125 -8.359375 5.328125 -8.351562 5.515625 -8.34375 C 5.703125 -8.332031 5.859375 -8.320312 5.984375 -8.3125 C 6.117188 -8.3125 6.210938 -8.304688 6.265625 -8.296875 C 6.328125 -8.285156 6.40625 -8.269531 6.5 -8.25 C 6.6875 -8.207031 6.835938 -8.109375 6.953125 -7.953125 C 7.066406 -7.796875 7.125 -7.644531 7.125 -7.5 C 7.125 -7.164062 7.015625 -6.976562 6.796875 -6.9375 C 6.710938 -6.914062 6.648438 -6.894531 6.609375 -6.875 C 6.191406 -6.25 5.757812 -5.460938 5.3125 -4.515625 C 4.875 -3.578125 4.488281 -2.828125 4.15625 -2.265625 C 4.03125 -1.984375 3.953125 -1.640625 3.921875 -1.234375 C 3.890625 -0.828125 3.820312 -0.5 3.71875 -0.25 C 3.582031 -0.164062 3.398438 -0.125 3.171875 -0.125 C 2.953125 -0.125 2.75 -0.222656 2.5625 -0.421875 C 2.414062 -0.734375 2.328125 -1.097656 2.296875 -1.515625 C 2.265625 -1.941406 2.210938 -2.300781 2.140625 -2.59375 C 1.972656 -3.175781 1.78125 -3.773438 1.5625 -4.390625 L 0.6875 -6.765625 C 0.625 -6.816406 0.5625 -6.84375 0.5 -6.84375 C 0.445312 -6.851562 0.410156 -6.867188 0.390625 -6.890625 C 0.0859375 -7.191406 -0.0625 -7.421875 -0.0625 -7.578125 C -0.0625 -7.742188 -0.0390625 -7.867188 0 -7.953125 C 0.132812 -8.222656 0.453125 -8.359375 0.953125 -8.359375 L 1.484375 -8.359375 C 1.597656 -8.367188 1.769531 -8.375 2 -8.375 C 2.851562 -8.375 3.28125 -8.171875 3.28125 -7.765625 C 3.28125 -7.523438 3.171875 -7.269531 2.953125 -7 C 2.898438 -6.9375 2.8125 -6.914062 2.6875 -6.9375 C 2.5625 -6.96875 2.488281 -6.957031 2.46875 -6.90625 C 2.445312 -6.8125 2.4375 -6.707031 2.4375 -6.59375 C 2.4375 -6.488281 2.460938 -6.28125 2.515625 -5.96875 C 2.566406 -5.664062 2.601562 -5.367188 2.625 -5.078125 C 2.65625 -4.796875 2.679688 -4.570312 2.703125 -4.40625 C 2.734375 -4.007812 2.9375 -3.515625 3.3125 -2.921875 L 3.53125 -2.9375 C 3.53125 -2.945312 3.578125 -3.023438 3.671875 -3.171875 C 3.929688 -3.578125 4.117188 -3.957031 4.234375 -4.3125 L 4.390625 -4.78125 C 4.421875 -4.882812 4.46875 -5.070312 4.53125 -5.34375 C 4.59375 -5.613281 4.644531 -5.8125 4.6875 -5.9375 L 4.78125 -6.203125 C 4.863281 -6.441406 4.90625 -6.625 4.90625 -6.75 Z M 4.90625 -6.75 "/></g></g></g><g fill="#ffffff" fill-opacity="1"><g transform="translate(605.511607, 340.07114)"><g><path d="M 6.046875 -10.1875 C 6.015625 -10.195312 5.96875 -10.203125 5.90625 -10.203125 C 5.507812 -10.203125 4.773438 -9.984375 3.703125 -9.546875 C 2.628906 -9.117188 2.039062 -8.90625 1.9375 -8.90625 C 1.84375 -8.90625 1.625 -9.023438 1.28125 -9.265625 C 0.945312 -9.515625 0.78125 -9.691406 0.78125 -9.796875 C 0.78125 -9.828125 0.789062 -9.859375 0.8125 -9.890625 C 1.113281 -10.023438 1.484375 -10.171875 1.921875 -10.328125 L 3.515625 -10.9375 C 3.890625 -11.09375 4.367188 -11.207031 4.953125 -11.28125 C 5.171875 -11.238281 5.359375 -11.160156 5.515625 -11.046875 C 5.671875 -10.929688 5.847656 -10.644531 6.046875 -10.1875 Z M 6.125 -0.046875 L 5.78125 -0.03125 C 5.570312 -0.0078125 5.398438 0 5.265625 0 C 5.140625 0 5.015625 -0.03125 4.890625 -0.09375 C 4.765625 -0.15625 4.675781 -0.207031 4.625 -0.25 C 4.582031 -0.300781 4.535156 -0.359375 4.484375 -0.421875 C 4.441406 -0.492188 4.398438 -0.550781 4.359375 -0.59375 C 4.328125 -0.632812 4.289062 -0.6875 4.25 -0.75 C 4.175781 -0.882812 4.09375 -0.953125 4 -0.953125 L 3.9375 -0.953125 C 3.78125 -0.953125 3.609375 -0.863281 3.421875 -0.6875 C 3.234375 -0.519531 3.101562 -0.414062 3.03125 -0.375 C 2.96875 -0.34375 2.890625 -0.296875 2.796875 -0.234375 C 2.515625 -0.0234375 2.171875 0.078125 1.765625 0.078125 C 1.367188 0.078125 1.039062 -0.00390625 0.78125 -0.171875 C 0.519531 -0.335938 0.34375 -0.601562 0.25 -0.96875 C 0.164062 -1.34375 0.125 -1.660156 0.125 -1.921875 C 0.125 -2.585938 0.445312 -3.203125 1.09375 -3.765625 C 1.488281 -4.078125 2.007812 -4.363281 2.65625 -4.625 C 2.757812 -4.675781 2.945312 -4.707031 3.21875 -4.71875 C 3.488281 -4.738281 3.679688 -4.800781 3.796875 -4.90625 C 3.921875 -5.007812 4.003906 -5.160156 4.046875 -5.359375 C 4.097656 -5.566406 4.125 -5.738281 4.125 -5.875 C 4.125 -6.007812 4.109375 -6.140625 4.078125 -6.265625 C 4.054688 -6.390625 4.039062 -6.5 4.03125 -6.59375 C 4.019531 -6.6875 4.007812 -6.753906 4 -6.796875 C 3.988281 -6.847656 3.972656 -6.90625 3.953125 -6.96875 C 3.898438 -7.082031 3.820312 -7.175781 3.71875 -7.25 C 3.625 -7.320312 3.53125 -7.359375 3.4375 -7.359375 C 3.351562 -7.359375 3.171875 -7.328125 2.890625 -7.265625 C 2.617188 -7.203125 2.410156 -7.082031 2.265625 -6.90625 C 2.128906 -6.726562 2.0625 -6.46875 2.0625 -6.125 L 2.0625 -5.796875 C 2.050781 -5.585938 1.957031 -5.414062 1.78125 -5.28125 C 1.601562 -5.15625 1.429688 -5.09375 1.265625 -5.09375 C 0.660156 -5.09375 0.359375 -5.382812 0.359375 -5.96875 C 0.359375 -6.070312 0.363281 -6.144531 0.375 -6.1875 C 0.488281 -6.84375 0.710938 -7.3125 1.046875 -7.59375 C 1.390625 -7.882812 1.710938 -8.066406 2.015625 -8.140625 C 2.328125 -8.222656 2.738281 -8.28125 3.25 -8.3125 L 3.609375 -8.328125 C 3.972656 -8.328125 4.300781 -8.222656 4.59375 -8.015625 C 5.019531 -7.734375 5.273438 -7.347656 5.359375 -6.859375 C 5.453125 -6.367188 5.5 -5.734375 5.5 -4.953125 L 5.5 -4.515625 L 5.515625 -3.765625 L 5.53125 -3.390625 L 5.515625 -2.6875 C 5.515625 -2.46875 5.535156 -2.210938 5.578125 -1.921875 L 5.578125 -1.6875 C 5.578125 -1.5625 5.644531 -1.5 5.78125 -1.5 C 5.914062 -1.5 6.070312 -1.617188 6.25 -1.859375 C 6.4375 -2.109375 6.59375 -2.234375 6.71875 -2.234375 C 6.726562 -2.234375 6.773438 -2.21875 6.859375 -2.1875 C 6.941406 -2.15625 6.984375 -2.070312 6.984375 -1.9375 L 6.9375 -1.515625 L 6.921875 -1.171875 C 6.921875 -1.046875 6.910156 -0.957031 6.890625 -0.90625 C 6.878906 -0.863281 6.867188 -0.8125 6.859375 -0.75 C 6.847656 -0.695312 6.832031 -0.648438 6.8125 -0.609375 C 6.789062 -0.566406 6.765625 -0.523438 6.734375 -0.484375 C 6.585938 -0.242188 6.457031 -0.109375 6.34375 -0.078125 C 6.226562 -0.0546875 6.15625 -0.046875 6.125 -0.046875 Z M 4.296875 -3.046875 L 4.265625 -3.21875 C 4.242188 -3.53125 4.113281 -3.753906 3.875 -3.890625 C 3.789062 -3.941406 3.628906 -3.9375 3.390625 -3.875 C 3.160156 -3.8125 2.882812 -3.679688 2.5625 -3.484375 C 2 -3.117188 1.71875 -2.78125 1.71875 -2.46875 C 1.71875 -1.820312 1.898438 -1.421875 2.265625 -1.265625 C 2.316406 -1.242188 2.363281 -1.234375 2.40625 -1.234375 C 2.457031 -1.234375 2.535156 -1.265625 2.640625 -1.328125 C 2.753906 -1.390625 2.835938 -1.425781 2.890625 -1.4375 L 3.125 -1.53125 C 3.445312 -1.65625 3.679688 -1.804688 3.828125 -1.984375 C 4.140625 -2.335938 4.296875 -2.691406 4.296875 -3.046875 Z M 4.296875 -3.046875 "/></g></g></g><g fill="#ffffff" fill-opacity="1"><g transform="translate(613.423986, 340.07114)"><g><path d="M 1.375 -3.71875 L 1.390625 -8.140625 C 1.390625 -9.410156 1.382812 -10.394531 1.375 -11.09375 C 1.300781 -11.1875 1.132812 -11.238281 0.875 -11.25 C 0.4375 -11.269531 0.21875 -11.445312 0.21875 -11.78125 C 0.21875 -11.875 0.238281 -11.960938 0.28125 -12.046875 L 0.671875 -12.3125 C 0.703125 -12.332031 0.722656 -12.347656 0.734375 -12.359375 C 0.742188 -12.367188 0.757812 -12.378906 0.78125 -12.390625 C 0.8125 -12.398438 0.832031 -12.40625 0.84375 -12.40625 C 0.863281 -12.414062 0.972656 -12.457031 1.171875 -12.53125 C 1.367188 -12.601562 1.632812 -12.640625 1.96875 -12.640625 L 2.125 -12.640625 C 2.570312 -12.640625 2.851562 -12.613281 2.96875 -12.5625 C 3.25 -12.4375 3.390625 -12.242188 3.390625 -11.984375 C 3.390625 -11.691406 3.28125 -11.503906 3.0625 -11.421875 C 2.957031 -11.378906 2.894531 -11.332031 2.875 -11.28125 C 2.914062 -9.863281 2.9375 -8.457031 2.9375 -7.0625 L 2.921875 -4.6875 C 2.929688 -4.601562 2.976562 -4.519531 3.0625 -4.4375 C 3.15625 -4.363281 3.238281 -4.316406 3.3125 -4.296875 C 3.539062 -4.472656 3.789062 -4.65625 4.0625 -4.84375 C 4.632812 -5.226562 5.101562 -5.613281 5.46875 -6 C 5.550781 -6.21875 5.59375 -6.363281 5.59375 -6.4375 C 5.59375 -6.519531 5.5625 -6.59375 5.5 -6.65625 C 5.4375 -6.71875 5.363281 -6.75 5.28125 -6.75 L 4.8125 -6.640625 C 4.789062 -6.640625 4.75 -6.65625 4.6875 -6.6875 C 4.4375 -6.757812 4.304688 -6.882812 4.296875 -7.0625 L 4.296875 -7.09375 C 4.296875 -7.34375 4.457031 -7.554688 4.78125 -7.734375 C 5.800781 -7.785156 6.96875 -7.859375 8.28125 -7.953125 C 8.5 -7.796875 8.609375 -7.613281 8.609375 -7.40625 C 8.609375 -7.320312 8.601562 -7.265625 8.59375 -7.234375 L 7.09375 -6.203125 C 6.59375 -5.867188 6.179688 -5.585938 5.859375 -5.359375 L 4.5 -4.3125 C 5.28125 -3.570312 6.070312 -2.890625 6.875 -2.265625 C 7.6875 -1.648438 8.382812 -1.082031 8.96875 -0.5625 L 8.9375 -0.15625 C 8.425781 -0.0625 8.007812 -0.015625 7.6875 -0.015625 C 7.375 -0.015625 6.960938 -0.0234375 6.453125 -0.046875 C 5.953125 -0.0664062 5.503906 -0.078125 5.109375 -0.078125 C 5.054688 -0.140625 5.03125 -0.210938 5.03125 -0.296875 C 5.03125 -0.390625 5.117188 -0.539062 5.296875 -0.75 C 5.378906 -0.832031 5.5 -0.875 5.65625 -0.875 L 6.0625 -0.84375 C 6.238281 -0.84375 6.34375 -0.910156 6.375 -1.046875 C 5.5625 -1.472656 5.019531 -1.785156 4.75 -1.984375 C 4.476562 -2.191406 3.945312 -2.648438 3.15625 -3.359375 L 3.15625 -2.609375 C 3.15625 -2.046875 3.140625 -1.457031 3.109375 -0.84375 C 3.171875 -0.757812 3.289062 -0.710938 3.46875 -0.703125 C 3.65625 -0.691406 3.78125 -0.640625 3.84375 -0.546875 C 3.957031 -0.378906 3.957031 -0.238281 3.84375 -0.125 C 3.351562 -0.03125 2.863281 0.015625 2.375 0.015625 C 1.882812 0.015625 1.507812 0.0078125 1.25 0 C 0.988281 0 0.796875 0 0.671875 0 C 0.597656 -0.0507812 0.5625 -0.132812 0.5625 -0.25 C 0.5625 -0.363281 0.59375 -0.472656 0.65625 -0.578125 C 0.71875 -0.679688 0.835938 -0.75 1.015625 -0.78125 C 1.203125 -0.820312 1.328125 -0.882812 1.390625 -0.96875 C 1.378906 -1.601562 1.375 -2.519531 1.375 -3.71875 Z M 1.375 -3.71875 "/></g></g></g><g fill="#ffffff" fill-opacity="1"><g transform="translate(623.386687, 340.07114)"><g><path d="M 4.40625 -0.0625 L 3.859375 -0.078125 C 3.710938 -0.0664062 3.523438 -0.0625 3.296875 -0.0625 C 2.648438 -0.0625 2.050781 -0.304688 1.5 -0.796875 C 0.90625 -1.378906 0.539062 -1.96875 0.40625 -2.5625 C 0.289062 -3.007812 0.234375 -3.429688 0.234375 -3.828125 C 0.234375 -4.234375 0.304688 -4.695312 0.453125 -5.21875 C 0.609375 -5.738281 0.773438 -6.160156 0.953125 -6.484375 C 1.140625 -6.816406 1.421875 -7.128906 1.796875 -7.421875 C 2.429688 -7.921875 3.164062 -8.171875 4 -8.171875 L 4.234375 -8.171875 C 4.535156 -8.160156 4.742188 -8.148438 4.859375 -8.140625 C 5.191406 -8.078125 5.554688 -7.847656 5.953125 -7.453125 C 6.359375 -7.054688 6.65625 -6.65625 6.84375 -6.25 C 7.0625 -5.757812 7.171875 -4.960938 7.171875 -3.859375 C 7.171875 -3.390625 7.078125 -2.847656 6.890625 -2.234375 C 6.710938 -1.628906 6.472656 -1.171875 6.171875 -0.859375 C 5.867188 -0.546875 5.488281 -0.3125 5.03125 -0.15625 C 4.820312 -0.09375 4.613281 -0.0625 4.40625 -0.0625 Z M 3.796875 -1.203125 L 4.3125 -1.140625 C 4.644531 -1.140625 4.929688 -1.285156 5.171875 -1.578125 C 5.273438 -1.691406 5.410156 -1.976562 5.578125 -2.4375 C 5.753906 -2.90625 5.84375 -3.332031 5.84375 -3.71875 C 5.84375 -4.863281 5.597656 -5.753906 5.109375 -6.390625 C 4.835938 -6.722656 4.585938 -6.910156 4.359375 -6.953125 C 4.140625 -7.003906 3.914062 -7.03125 3.6875 -7.03125 C 3.457031 -7.03125 3.203125 -6.9375 2.921875 -6.75 C 2.648438 -6.570312 2.40625 -6.195312 2.1875 -5.625 C 1.976562 -5.050781 1.875 -4.578125 1.875 -4.203125 C 1.875 -2.984375 2.15625 -2.113281 2.71875 -1.59375 C 2.914062 -1.40625 3.273438 -1.273438 3.796875 -1.203125 Z M 3.796875 -1.203125 "/></g></g></g><g fill="#ffffff" fill-opacity="1"><g transform="translate(631.555359, 340.07114)"><g><path d="M 4.90625 -6.75 C 4.90625 -7.039062 4.789062 -7.1875 4.5625 -7.1875 L 4.359375 -7.1875 C 4.242188 -7.1875 4.148438 -7.234375 4.078125 -7.328125 C 4.015625 -7.429688 3.984375 -7.578125 3.984375 -7.765625 C 3.984375 -7.953125 4.082031 -8.097656 4.28125 -8.203125 C 4.476562 -8.304688 4.6875 -8.359375 4.90625 -8.359375 C 5.125 -8.359375 5.328125 -8.351562 5.515625 -8.34375 C 5.703125 -8.332031 5.859375 -8.320312 5.984375 -8.3125 C 6.117188 -8.3125 6.210938 -8.304688 6.265625 -8.296875 C 6.328125 -8.285156 6.40625 -8.269531 6.5 -8.25 C 6.6875 -8.207031 6.835938 -8.109375 6.953125 -7.953125 C 7.066406 -7.796875 7.125 -7.644531 7.125 -7.5 C 7.125 -7.164062 7.015625 -6.976562 6.796875 -6.9375 C 6.710938 -6.914062 6.648438 -6.894531 6.609375 -6.875 C 6.191406 -6.25 5.757812 -5.460938 5.3125 -4.515625 C 4.875 -3.578125 4.488281 -2.828125 4.15625 -2.265625 C 4.03125 -1.984375 3.953125 -1.640625 3.921875 -1.234375 C 3.890625 -0.828125 3.820312 -0.5 3.71875 -0.25 C 3.582031 -0.164062 3.398438 -0.125 3.171875 -0.125 C 2.953125 -0.125 2.75 -0.222656 2.5625 -0.421875 C 2.414062 -0.734375 2.328125 -1.097656 2.296875 -1.515625 C 2.265625 -1.941406 2.210938 -2.300781 2.140625 -2.59375 C 1.972656 -3.175781 1.78125 -3.773438 1.5625 -4.390625 L 0.6875 -6.765625 C 0.625 -6.816406 0.5625 -6.84375 0.5 -6.84375 C 0.445312 -6.851562 0.410156 -6.867188 0.390625 -6.890625 C 0.0859375 -7.191406 -0.0625 -7.421875 -0.0625 -7.578125 C -0.0625 -7.742188 -0.0390625 -7.867188 0 -7.953125 C 0.132812 -8.222656 0.453125 -8.359375 0.953125 -8.359375 L 1.484375 -8.359375 C 1.597656 -8.367188 1.769531 -8.375 2 -8.375 C 2.851562 -8.375 3.28125 -8.171875 3.28125 -7.765625 C 3.28125 -7.523438 3.171875 -7.269531 2.953125 -7 C 2.898438 -6.9375 2.8125 -6.914062 2.6875 -6.9375 C 2.5625 -6.96875 2.488281 -6.957031 2.46875 -6.90625 C 2.445312 -6.8125 2.4375 -6.707031 2.4375 -6.59375 C 2.4375 -6.488281 2.460938 -6.28125 2.515625 -5.96875 C 2.566406 -5.664062 2.601562 -5.367188 2.625 -5.078125 C 2.65625 -4.796875 2.679688 -4.570312 2.703125 -4.40625 C 2.734375 -4.007812 2.9375 -3.515625 3.3125 -2.921875 L 3.53125 -2.9375 C 3.53125 -2.945312 3.578125 -3.023438 3.671875 -3.171875 C 3.929688 -3.578125 4.117188 -3.957031 4.234375 -4.3125 L 4.390625 -4.78125 C 4.421875 -4.882812 4.46875 -5.070312 4.53125 -5.34375 C 4.59375 -5.613281 4.644531 -5.8125 4.6875 -5.9375 L 4.78125 -6.203125 C 4.863281 -6.441406 4.90625 -6.625 4.90625 -6.75 Z M 4.90625 -6.75 "/></g></g></g><g fill="#ffffff" fill-opacity="1"><g transform="translate(639.655686, 340.07114)"><g><path d="M 1.625 -1.984375 C 1.625 -2.359375 1.765625 -2.628906 2.046875 -2.796875 C 2.335938 -2.960938 2.671875 -3.046875 3.046875 -3.046875 C 3.429688 -3.046875 3.738281 -2.894531 3.96875 -2.59375 C 4.195312 -2.289062 4.3125 -1.988281 4.3125 -1.6875 C 4.3125 -0.9375 3.890625 -0.5625 3.046875 -0.5625 C 2.742188 -0.5625 2.484375 -0.664062 2.265625 -0.875 C 1.835938 -1.25 1.625 -1.617188 1.625 -1.984375 Z M 3.703125 -6.0625 L 3.65625 -4.671875 C 3.65625 -4.347656 3.671875 -4.085938 3.703125 -3.890625 C 3.617188 -3.816406 3.472656 -3.78125 3.265625 -3.78125 C 3.066406 -3.78125 2.851562 -3.921875 2.625 -4.203125 C 2.363281 -5.253906 2.234375 -6.03125 2.234375 -6.53125 C 2.234375 -7.03125 2.265625 -7.640625 2.328125 -8.359375 C 2.847656 -8.523438 3.273438 -8.609375 3.609375 -8.609375 L 4.265625 -8.578125 C 4.484375 -8.578125 4.707031 -8.609375 4.9375 -8.671875 C 5.09375 -8.828125 5.171875 -8.984375 5.171875 -9.140625 C 5.171875 -9.296875 5.128906 -9.460938 5.046875 -9.640625 C 4.972656 -9.828125 4.835938 -9.972656 4.640625 -10.078125 C 4.453125 -10.191406 4.210938 -10.289062 3.921875 -10.375 C 3.640625 -10.46875 3.425781 -10.554688 3.28125 -10.640625 C 3.144531 -10.722656 2.976562 -10.796875 2.78125 -10.859375 C 2.582031 -10.921875 2.421875 -10.992188 2.296875 -11.078125 C 2.066406 -11.210938 1.953125 -11.484375 1.953125 -11.890625 C 1.953125 -12.304688 2.128906 -12.613281 2.484375 -12.8125 C 2.753906 -12.84375 2.988281 -12.859375 3.1875 -12.859375 C 3.382812 -12.859375 3.59375 -12.8125 3.8125 -12.71875 C 4.039062 -12.625 4.363281 -12.453125 4.78125 -12.203125 C 4.832031 -12.117188 4.941406 -11.945312 5.109375 -11.6875 C 5.273438 -11.4375 5.382812 -11.269531 5.4375 -11.1875 L 5.640625 -10.796875 C 5.785156 -10.492188 5.882812 -10.132812 5.9375 -9.71875 L 6.015625 -9.1875 C 6.054688 -8.90625 6.078125 -8.695312 6.078125 -8.5625 C 6.078125 -8.125 5.898438 -7.734375 5.546875 -7.390625 C 5.378906 -7.210938 5.078125 -7.0625 4.640625 -6.9375 C 4.203125 -6.820312 3.890625 -6.628906 3.703125 -6.359375 Z M 3.703125 -6.0625 "/></g></g></g></svg>